<svg xmlns="http://www.w3.org/2000/svg" xmlns:xlink="http://www.w3.org/1999/xlink" viewBox="0 0 1125 2436"><defs><style>.cls-1{fill:url(#linear-gradient);}.cls-2{fill:#55d3ff;}.cls-3{fill:#0eafdb;}.cls-4{fill:#0078ad;}.cls-5{fill:#005877;}.cls-6{fill:#003644;}</style><linearGradient id="linear-gradient" x1="568.15" y1="63.89" x2="556.95" y2="2350.66" gradientUnits="userSpaceOnUse"><stop offset="0" stop-color="#ccfeff"/><stop offset="0.23" stop-color="#c9fdff"/><stop offset="0.38" stop-color="#c1fbff"/><stop offset="0.5" stop-color="#b2f7fe"/><stop offset="0.61" stop-color="#9ef1fe"/><stop offset="0.71" stop-color="#83e9fd"/><stop offset="0.8" stop-color="#62e0fc"/><stop offset="0.89" stop-color="#3bd5fb"/><stop offset="0.98" stop-color="#0fc8f9"/><stop offset="1" stop-color="#00c4f9"/></linearGradient></defs><title>1</title><g id="Fine"><rect class="cls-1" width="1125" height="2436"/><path class="cls-2" d="M755.27,1966.32c-15.74-13.19-32.8-12.62-50.92-5.75-9.67,3.67-19.77,6.28-29.82,8.77-4.88,1.21-9.2-2.06-13.28-4.33-13-7.22-25.89-14.53-38.55-22.29-6.47-4-13.64-5.85-20.55-8.39-12.77-4.7-23.61-14.16-37.8-15.39-2.07-.18-4.11-2.28-5.93-3.79-13.85-11.47-17.54-11.56-34-1.24a74.61,74.61,0,0,1-15.88,7.63c-18.6,6.29-36.47,14.34-52.62,25.78-6.65,4.7-13.86,7.2-21.78,6.53A244.8,244.8,0,0,1,381,1943.08c-4.24-1.34-8.24-3.86-12.79-3.55-19.18,1.32-35-7.85-50.21-17.45-11.63-7.36-22.79-15.34-36-19.32-17.84-5.36-34.63-1.66-50.46,7.34a236.26,236.26,0,0,0-21.15,13.4c-6.71,4.82-13.76,7.07-21.68,4.74-14.25-4.19-28.7-6.51-42.34-14.19-21.38-12-42.22-28-69.34-23.81-2.79.43-5-1-7.19-2.81-20.31-16.54-42.92-26.92-69.6-26v188.13a8.27,8.27,0,0,0,2.57-.59c13.41-8.52,26.52-14.59,39.2,1.57,2.43,3.1,6.85,4.61,10.35,6.85,1.89-.87,3.79-1.73,5.68-2.61,8.46-3.93,13.95-12.46,22.09-16.18,15.4-7,30.09-15.45,45.28-22.88,4.62-2.26,8.37-3.07,12.38-.35,7.12,4.83,14.54,4,22.27,2.26,10.42-2.38,20-.62,28.46,6.45a54.24,54.24,0,0,0,16.22,9.31c30,10.89,56.52,4.81,80.07-16.5,4.81-4.35,9-10.18,16.08-10.61,6.35-.39,11.08-3.07,15.75-7.18,8.91-7.84,18.24-14.73,31.22-8.71,3.72,1.72,7.66-.09,10.75-2.68a126.42,126.42,0,0,0,11.23-10.2c17.92-19.11,29.16-14.86,46.08-1.26,9.7,7.8,19.09,16.87,28.73,25.12,14.78,12.65,33.07,19.65,50,28.75,5.83-6.54,14.13-5.55,21.46-6.56,11-1.51,22.56-3.86,33.22-1.11,24.15,6.22,45.76,4.49,64-14.47,2.72-2.83,5.57-6.74,9.32-6.55,16.8.84,31.37-14,49-6.88,1.6.64,4.11-.45,6-1.23,4.06-1.69,7.26-.48,10.72,1.87,11,7.46,18.71,8.07,28.15-.53A239.19,239.19,0,0,1,755.27,1966.32Z"/><path class="cls-3" d="M1125.19,2070.41,1125,1994v-24.89c-6.64.65-13.06-1-19.34-2.6-11.71-3-21.63.22-30.71,7.52-23.1,18.56-49,21.31-76.65,13.85a24.59,24.59,0,0,1-9.18-5.31c-11.09-9.55-24.87-15.31-35.22-25.89a7.68,7.68,0,0,0-4.63-2.46c-14.41-.28-22.72-11.36-33.08-18.81-5.78-4.16-12.28-5.18-18.64-2.51-10,4.18-16.66.28-23.51-6.9-8.69-9.09-16.65-19.66-30.3-22-1.33-.22-2.45-2-4-1-10.48,6.78-25,7.23-31.22,20.68a2.19,2.19,0,0,1-.5.75c-16.93,13.85-31.3,31.21-52.49,39.2a239.63,239.63,0,0,0-38.78,28.3c-9.44,8.6-17.16,8-28.14.53-3.47-2.35-6.67-3.56-10.73-1.87-1.88.78-4.4,1.87-6,1.23-17.64-7.12-32.21,7.72-49,6.88-3.75-.19-6.6,3.72-9.32,6.55-18.22,19-39.83,20.69-64,14.47-10.67-2.74-22.24-.4-33.23,1.11-7.1,1-15.1.08-20.9,6-23.69,1-60.75,2.78-103.7,4.93-12.69.64-29.32-6.42-42.86-5.73-55.11,2.8-95.92,18.91-148.71,21.52-79,3.91-131.58,2.74-132.46,1.63-12.56-16-59.53-19.14-64.56-3.34h-3v153H.47V2436H1125.19V2070.41m-1119.36,29,0,0h0S5.83,2099.35,5.83,2099.36Zm1110.25-23.5s0,0,0-.05l.09,0Z"/><path class="cls-4" d="M1101.3,2073.87c-.42.44-.86.85-1.29,1.26l-.26.24c-.44.4-.87.8-1.31,1.18l-1.08.92-.52.42c-.44.38-.9.73-1.35,1.07s-.86.65-1.29,1c-.6.43-1.19.85-1.8,1.25-.41.28-.84.55-1.25.82l-.2.13-.25.15-1.19.72-.54.31c-.28.18-.56.34-.85.49l-.5.27c-.42.24-.85.46-1.28.68l-.57.29c-.8.41-1.62.8-2.44,1.17l-.56.25-1.07.46-.76.32-.92.37c-.69.27-1.4.54-2.1.79l-1.6.56-.94.32-1.74.55c-.73.22-1.45.43-2.18.63l-1.28.34-.9.24-1.75.43q-.85.21-1.71.39l-1,.22-.82.17c-.59.13-1.19.25-1.78.36l-1.8.35-1.4.25-2.19.37-1.8.29q-1.5.24-3,.45c-1.11.16-2.2.33-3.31.48l-.37,0-.59.08-5.73.77c-3.84.51-7.84.62-11.45,1.87-16.79,5.8-29.78-5.55-43.85-10.47-11.4-4-22.24-4-33.82-4.4-19.12-.72-38.25.55-57.11-8.28-16.8-7.9-35.26-15-55.28-9.92-9.38,2.37-18.36-1.37-26.85-5.24-14.49-6.57-27.22-4.13-36.44,8.72-8.68,12.1-18.84,13.62-32.25,9.94-10-2.73-20.93-1.72-30.88-4.47-7.21-2-13.14-7.79-20.64-10.43a109.4,109.4,0,0,0-27.07-5.48c-14.23-1.21-28.12,1.39-42.2,2.81-12,1.2-23.63-3.58-32.95-11.77-7.49-6.57-15.25-11.41-25.54-11.2-2.59,0-5.22-1.16-7.8-1.87-14.41-4-28.51-5.48-42.51,2.19-8.82,4.83-20.39-1.12-26.2-12.47-17.11-9.15-35.56-16.19-50.47-28.91-9.72-8.29-19.19-17.41-29-25.25-17.07-13.68-28.42-18-46.49,1.26a128.34,128.34,0,0,1-11.33,10.26c-3.12,2.6-7.09,4.42-10.84,2.69-13.1-6-22.51.88-31.5,8.76-4.71,4.13-9.48,6.83-15.89,7.22-7.12.43-11.36,6.29-16.22,10.67-23.76,21.42-50.52,27.54-80.77,16.59a54.75,54.75,0,0,1-16.36-9.36c-8.57-7.11-18.2-8.88-28.7-6.49-7.81,1.78-15.28,2.59-22.47-2.27-4-2.73-7.84-1.92-12.5.35-15.31,7.47-30.14,15.93-45.67,23-8.21,3.74-13.75,12.31-22.29,16.26-1.9.89-3.82,1.75-5.73,2.63-.67,8.3-8.17,11.18-12.75,16.39-1,1.17-2.2,2.25-3.36,3.33l-1.37,1.31c-.23.22-.45.44-.67.68-.45.45-.87.91-1.28,1.38a18,18,0,0,0-1.14,1.5,13.47,13.47,0,0,0-1,1.65,11.86,11.86,0,0,0-.74,1.83h0c1,3.92-1.77,1.78-3.05,2a.66.66,0,0,0-.2.06.41.41,0,0,0-.11.07l-.06-.11c-1.4,7.39-7.19,11.4-12.16,15.91-.23.54-.45,1.08-.67,1.64l-.64-.38A22.79,22.79,0,0,0,0,2106.07V2436H1125V2067.17C1125.16,2061.05,1114.15,2067.81,1101.3,2073.87ZM230.54,2339.43v0s0,0,0,0ZM584,2328.51h0v0h0Zm5.35-7.28h0Z"/><path class="cls-5" d="M1125,2235.21l-.14-159.05-14.28,2.11c0,.18,0,.38,0,.57l-3.55,0c-3.32-3.09-6.34-.12-8.87,1.1-14.54,7-29.07,14.16-41.06,25.54-2.13,2-4.49,3.3-7.24,2.73l-1.4-.27-.4-.06-.61-.1-1.13-.16-.86-.1-.7-.06q-.37,0-.75-.06c-.38,0-.76-.07-1.14-.08s-.48,0-.72,0l-.58,0h-1q-.79,0-1.59,0c-.45,0-.89,0-1.33.07s-1,.07-1.42.12c-.31,0-.62.06-.92.1s-.68.07-1,.12c-.51.07-1,.14-1.53.23l-1.42.27c-.59.12-1.18.24-1.77.39-.4.1-.79.19-1.18.3l-.5.13c-.67.18-1.33.37-2,.58s-1.36.44-2,.67c-1,.34-1.92.71-2.88,1.09s-1.89.79-2.83,1.21l-1.14.52-.5.25c-.39.18-.77.36-1.16.56q-2.08,1-4.14,2.14l-1.37.77-.81.44-1.24.72-.68.39c-.83.48-1.65,1-2.47,1.46-3.24,1.94-6.45,3.94-9.67,5.91-15.39,9.36-31.06,17.59-48.55,22.37-11.18,3.06-20.71,2.61-30-4.55-5.46-4.18-11.82-7.21-17-11.74-22.86-20.1-58.56-15.57-80.54,4.3-13.1,11.86-29.78,15.82-43.95,25-1.76,1.13-4.68.69-7,.48-10.12-.93-19.52.9-27.73,7.37a9.32,9.32,0,0,1-9.32,1.5c-6.38-2.52-12.32.49-17.24,2.65-.44.2-.88.38-1.31.54a33.23,33.23,0,0,1-3.35,1.15l-.76.22-.31.08-.42.1-1.12.25a3,3,0,0,1-.32.07c-.25.06-.5.1-.75.14h0l-.16,0-.12,0c-.43.07-.86.14-1.29.19s-.65.09-1,.12h0l-.89.1a49.32,49.32,0,0,1-5.33.16c2.5-8.41-4.25,2.06-6.95-1.85,2.23-5.49-.75,1.66-2.14-3.35-.95-3.4.17,4.57-3.71-5,2.79,12.79-2.63.89-3.38-.81h0c-3.3-1.48-4.56-.59-4.86,4.77a12.37,12.37,0,0,1-8.76-3.75c-12.21-11.58-27.83-16.45-42.56-22.67-8.75-3.69-17.54-7.39-25-12.92-8.93-6.57-15.92-7-24.48.32-5.66,4.82-11.85,9.42-20,10.25-2.72.28-7.47.7-8.17,5.62l0,0,0,0c-5.92-.81-9.64,4.15-14.58,6-23.09,8.66-43.76,22.08-64.21,35.78a21,21,0,0,1-12.09,3.61,39.65,39.65,0,0,1-9-1.22c-.15-2.32-.29-4.63-.43-7,0-.35-.05-.71-.07-1.07-4.4,10.54-11.64,5.58-17.07,3.1a68.71,68.71,0,0,0-29-6.34c-9.44-.06-17.66,2.3-24.59,8.5-3.56,3.18-8.2,4.57-11.88,5.43-11.44,2.65-19.86,15.05-32.53,11.85-12.07-3.07-25-2.78-36.14-9.57-4.79-2.92-10.27-.37-15.47-2.93-7.37-3.62-14.43-7.93-21.81-11.55-13.9-6.84-27.42-7.28-41.13-1.59-8.28,3.44-16.55,4.16-25.17,3.77-6.08-.26-11.08,1.64-14.24,7.36l-13.43,10.68s-15.21,9.38-17.57,16.57-6.5,15-18,14.61a18.33,18.33,0,0,0-10,2.31c-4,2.09-7.8,4.82-17.26,4.76h-.62l-.59,0-1.13-.07h-.08l-.73-.08a16.51,16.51,0,0,1-3.68-.85l-.44-.18a2.28,2.28,0,0,1-.36-.15,7.32,7.32,0,0,1-.69-.33c-.23-.12-.45-.24-.66-.37l-.09-.05c-.18-.1-.35-.22-.51-.33l0,0a13.19,13.19,0,0,1-1.12-.85c-.18-.14-.34-.29-.51-.44-.36-.31-.7-.64-1-1-1.12-1.11-2.24-2.35-3.6-3.63-3.08-2.91-7.42-6-16-8.4-4-1.11-8.27-2.56-12.58-4.13h0c-2.6-1-5.22-2-7.84-3l-3.8-1.47c-4.17-1.61-8.25-3.17-12.1-4.52h0c-1.63-.55-3.21-1.08-4.74-1.56a2.2,2.2,0,0,1-.36,0,2.39,2.39,0,0,1-1.89-.71h0c-6.8-1.95-12.36-2.61-15.6-.7-9.22,5.46-9.93,3.49-9.93,3.49V2436H1125V2235.21Z"/><path class="cls-6" d="M0,2436c.21-100.31.28-208.36.28-308.67l7.21-7.56c5.76,1.13,7.52-6.5,13.7-6.38-2,6.51-7.15,9.34-11.48,13-4.08,3.47-7.32,7.59-.57,11.89,4.63,1.92,6.7,4.61,2.28,8.93-1.46,1.42-2.32,2.6-.28,4.15.35,3.07,2.17,6.18-.21,9.19-2.09,2-2.69,5.42-.5,6.25,4.17,1.58,2.74,5.18,3.65,8.07,6.51-2.49,10-9.2,16.65-10.62-.64,6-6.12,7.68-9.86,11.65,4.06,3.22,7.91-2.25,11.94.38-3.79,4.15-17.12,1.85-11.17,14.76-1.2,2-.82,2.57-.44,3.17a21.09,21.09,0,0,0,2-2.45c.09-.14,1.33-1.85-.52-1.48-.94.19-1.76,1-1,.76,14.68-5.73,14.68-5.73,19.46-18.52,3.13,7,.62,13.19-1.53,19.44-3,11-7.55,21-16.48,28.25-1.22,1-1.75,2.76-.22,3.89s2.67-.32,3.76-1.31c1.74-1.58,3.61-4.09,6-2.4,2.61,1.85-.8,4.35-.3,6.64-5.75,2.77-7.4,9-10.47,13.89-.85,1.37-3.46,4.8.45,5.93,3,.85,5-1.84,5.89-4.45,1.29-3.93.37-8.67,4.17-11.65,1,5.79,5.79,10.54,3.8,17.28-1,3.26,1.47,4.87,4.8,4.73,4.21-.19,6.32-2.84,5.52-6.61-3.17-14.95,1.11-30.73-5-45.34-1.14-2.75-1.35-5.91-2-8.89,2.62.23,4.89,1.45,5,4.25.49,9.11,5.22,17.41,4.11,26.92-.74,6.38,2,12.32,5.23,17.88,2.25-7.68,4.68-14.84,2.3-23.05-1.5-5.16-2.59-11.46,4.37-15.06,3.63-1.88,1.94-5.81,1.29-9.1-1.11-5.56-3.78-11-2.09-17,10.15,3.47,10.18,3.44,10-8.73.35-3-.9-6.94,3.81-7.66,3.24.38,2.89,3.16,3.74,5.39.55,1.44-.64,5.56,4.69,2.94,3.84-1.89,2.37,5.68,1.49,6.77-5,6.26-4.39,12.9-2.43,20,2.8.19,2.78-4.5,6.35-3.92-.11,1.07.09,2.37-.38,3.3-3.65,7.28-8.5,14-8.27,22.86.14,5.33-.91,11.81,7.51,6,.78-.54,2.22-.07,3.58-.07-.79,6.06-5.08,7.51-9.29,8.65-5.08,1.38-6.45,5.65-8.89,10.57,15.57-1.21,26.56-11.11,39.2-17.47.66,3.29,1.25,6.18,1.83,9.07,1.75,6.57-2.55,11.42-5,16.72,1,.5,1.44,1,2,1,3.27.1,7.14-5.59,9.31-1,1.83,3.89.65,9.76-2.08,13.61-3.28,4.62-7.21,9-13.14,10.4-4.9,1.15-5.91,5.15-4.84,9.25s3.91,4.64,8.32,4.25c7.29-.63,14-3.88,21.27-4.08,5.11-.14,9.46-1.49,5.46-9,6.19,2.19,15-2.6,13.15-5.73-2.21-3.64-4.83-6.87-5.06-11.42,2.12-2.5,3.61,2.43,5.32.61,1.85-2,.33-4.17-.77-5.87-2.73-4.24-4.69-7.61-.9-13.11,2.38-3.46-1.88-8.54-3-12.95-.81-3.33-.57-4.75,2.14-8,4.17-5,9.88-11.28,7.06-19.75-1.34-7.43-5.41-14.71-.23-22.45.88-1.32-.77-4.58-1.46-6.87-1.33-4.46-5.57-10,4.5-8.55,3.44.5,2.55-3.34,1.94-5.57-2.39-8.77,1.31-17,1.91-25.56,2.7,5.11,2.28,10.66,3.23,15.95.76,4.25-1.52,10.05,4.42,12.43l0,0c-1,5.12-3.5,10.26,2.57,14.35,2.41,1.62-.19,4.45-.81,6.59-3,10.6-1.27,12.73,8.94,10.44.05,5.12-5,5.53-7.34,8.51-1.42,1.84-4,3.33-2.19,6.2,1.5,2.4,3.57,4.24,6.69,3.27s6-2.6,9.05.19c-1.73,4.85-12.79,1.78-8.84,10.42,3,6.67,8.08.16,12.35-.18.33,4.91-3.51,5.52-5.75,7.6-3.45,3.21-7.9,5.84-7.54,11.72.32,5.08-2.51,13.88,10,5.58-14.44,12.84-3.9,26.9-6.37,39.41-.33,1.66-.3,4.15,2.13,4.18,1.16,0,3.22-1.4,3.4-2.45,1.31-7.64,5.92-6.4,11.41-4.64-4.55,8.66-4,17.14.82,26.09,5.88-5,2.12-13.73,7.8-19.46,1.81,8.13-2.43,14.52-3.23,21.37-.62,5.31-4,12.75,6.61,7.08,3.52-1.88,4.4,1.56,4.9,4.43-2.42,0-4.38.17-5.42,3.37-1.77,5.46-4.59,10.55-6.37,16-1,3-2.08,7.91,4.12,4.36,4.09-2.34,6.42,2,9.39,3.07,3.17,1.17-.52,4-1.49,5.8-2.1,4-2.82,7.59,1.44,10.35,4.43,2.86,8.78,1.4,12.33-1.65,4.14-3.55.72-6.42-1.56-9.21-.76-.92-1.56-1.91-.15-3.72,4.27,1.32,7.09,4.74,8.84,8.78s4.19,4.3,7,2.34c3.47-2.43.64-4.54-.86-6.77-3-4.48-6.89-8.49-7.65-14.27,8.62,2.71,9.35,13.31,16.81,17.55-2-8.15-4.33-16-8.57-23.28-2.64-4.54-8-12.1-3.3-14.49,5.71-2.92,5.44,6.45,7.66,10.54s4.78,7.46,10.11,9.56A109.94,109.94,0,0,0,239.48,2300c4.76,2.3,10.86,10.63,12.54,15.74,1,3.19.71,9.46,4.7,8.26,4.82-1.46,1.83-6.3.23-9.93-2.3-5.2-2.59-10.95-.07-15.93,1.4-2.77,2.06-4.76,1-7.59-.65-1.71-1-4.46.69-5,12.33-4.2,5.65-15.2,7.34-22.85,1.85-8.39-.77-17.63,3.93-26v13.22c0,12.09.31,24.05,9.36,33.46,1.79,1.85-.77,3.18-1,4.77-.9,5.42-.29,9.64,7,6.74-.54,6.38-6.08,9.84-7.89,16.36,6.62-2.3,7.4,4.47,11.47,6-2.09,5.25-11.66,2.83-9.32,9.85,3.18,9.51,11.6,3.59,18.8,4.13-3.8,5.73-9.44,12.16,2.92,11.87.84,7.75,8,8.37,12.64,11.52,12,8.17,24.87,13.85,39.93,9.59-5.14,17.5-5.14,17.5-26.2,19.09-1.45.11-2.18.79-2,2.23.22,2.07,1.56,3.72,3.37,3.74,11.33.12,22,7.43,33.71,3.19,1.74-.64,3.6-1.18,4.81.72,6.17,9.62,16.31,7.79,25.23,9.37,1.66.29,3.75.45,4.84-1.42,1.53-2.64-1.23-3.62-2.15-5.36-7.62-14.44-16-28.75-14.67-46.12.37-4.83-3.19-9.3-.53-15.23,2.84,3.86,3.27,7.67,3.89,11.34,1.83,10.91,10.79,16.37,17.05,23.87a3.24,3.24,0,0,0,3.21.43c1.67-1.16,1.65-3.48,1-5-3.54-8.92-4.13-18.86-9.42-27.22a54.83,54.83,0,0,1-8.77-28.38c8.39,13.79,10.62,31.74,27,42.47-1.52-8.84-5-15.72,0-22.67,1.6-2.21-1.31-5-3.25-7a56.41,56.41,0,0,1-11-15.88c9.54,4.12,12.23,12.6,17.78,18.09,2.76,2.74,5,6.05,7.62,8.94,1.13,1.23,2.74,3.21,4.38,1.14a3.43,3.43,0,0,0-1.15-5.44c-4.79-2.7-10.94-4.72-3-11.48.56-.47-2.66-8.46-3.19-13.24,2.95-1.3,3.85,2.84,6.36,2.19l.4.73c-.13-.25-.26-.5-.38-.75-2.92-10.89,2.21-22.7-3.58-33.25h0c2.36-1.94,5-1,8.06-.67.33-8.08-6.39-14.3-5.66-23.51,4,3.19,3.9,7.11,5.38,10.17.85,1.76,2.27,2.93,4.28,2.41,2.26-.58,2.39-2.64,2-4.41a66.78,66.78,0,0,0-3.18-10.39c-.82-2-2.77-4.23-1.51-5.86,3.76-4.88,3-9,.14-14-1.57-2.79-1.57-6.74,4.18-5.65,4.09.77,5.19-.18,5-6-.24-8.2-1.22-17.23,2.78-25.23h0c2.85,9.28,1.3,20.11,9.26,27.6,1.69,1.59.37,3.2-.41,4.92-3.2,7.07.6,8.27,6.31,7.65C455,2246,455,2246,466,2250.81c-7.66,3.88-12.12,10-14.95,18,7-5.45,14.53-5.58,22.9-4.21-2.22,5.12-8,1.36-10,5s1.68,7.68-2.6,13.15l17.79-7.24c-2.4,5.31-7,6.88-11.12,8.64-5.33,2.26-5.65,6.23-5.47,11.15.21,6,4.51,4.92,8.29,4.69-.79,3.75-6.27,4.74-3.39,9.13.88,1.34,1.66,2.56,3.45,2.17,3.62-.77,6.54-2.34,6.43-7.19,3.66,2.87,3.28,6.67,3.83,9.79,1.34,7.68,6.83,9.32,12.8,10.57,3.68.76,4.14-1.1,3-4.19-.63-1.71-.88-3.57-2.63-4.62-9.05-5.4-10.86-15.56-15.47-24.27,6.73-.08,6.73-.08,8.26-9.63,2.62,0,2.34,2.46,2.85,4,2.74,8.22,9.87,13.45,18.31,13.25,1.52,0,3.05-.09,3.73-1.81,1-2.62.13-4.8-1.65-6.7-3.87-4.11-8-8.05-9.8-14.26a12.22,12.22,0,0,1,2.76,0c3.74,1,4.95,9.69,7.82,6.41a15.56,15.56,0,0,0,1.32-18c-2.69-4.61-7.68-7.83-8.23-14.58,4.19,0,5.81,2.89,7,5.83,2.22,5.66,7.37,8.8,10.47,13.67.95,1.49,2.42,2,3.8,1s1-2.5.24-4c-2.59-5.19-5-10.47-8.05-16.83,6.06,1.82,6.06,7.16,9.74,10.25,2.44-5.9-2-11-.56-16.23h0c9.72-5,4.9-12.8,3.72-20-.35-2.12-2.15-4.35.16-8,1.45,3.94,2.49,7,3.68,9.91.73,1.81,2.11,3.18,4.09,2.88a3.32,3.32,0,0,0,2.41-4.94c-6.16-9.84,2.52-20.17-1.22-30A4.64,4.64,0,0,1,540,2190c6.13-10,9.81-23.1,7.74-31.52a59.73,59.73,0,0,1-1.31-12.72h0c5.35,9.27,4.9,20.38,8.85,30.11.74,1.84-.54,5.31,1.51,5.84,7.26,1.85,4.3,4.46,1.79,8.64-1.35,2.23-2.6,8.41,4.19,6.83,3.77-.88,3.38,1,2.53,3.25-.4,1.09-1.45,1.91-2.14,2.91-6.71,9.7-5.36,13.57,6.76,16.15-7.42,3.55-14.32,6.68-16.15,15.69,10.46-3.87,11.67-2.69,11.17,11.93-.12,3.4,3.14,7.45-2,10.71-1.58,1,.06,5.93,4.46,5.41,5.76-.69,5.51,2.88,4.56,6.93-.5,2.16-3.51,4.71-.5,6.46,6.2,3.61,5.49,5.39-.39,8.82-3,1.75-1.7,6,2.48,6.12,13.37.28,26.75.16,40.13.08,3.38,0,4.22-1.74,2.22-4.71a4.25,4.25,0,0,1-.91-1.56c-.56-4.76-5.05-10.63-1.46-13.81,3.28-2.91,7.08,3.43,10.92,5,14.06,5.84,28.43,9.82,43.6,7.06.79-2-.16-3-1.24-3.3-12.42-3.84-22.75-11.91-34.09-17.92-2.64-1.4-5.6-2.87-5.35-6.59.32-4.75-.63-10.9,7.77-6.69,5.25,2.64,11.25,3.77,17,5.32,1.89.51,4.64,1.2,5.6-1.14,1.16-2.81-1.68-3.14-3.44-4.17-6.52-3.84-12.3-8.41-14.39-16.47-.42-1.59-2.86-3-.94-4.72,1.77-1.61,3.9-.77,5.77.39a44.18,44.18,0,0,0,17.53,6.09c7.8,1.07,12.35-1.61,10.85-10.55a18.28,18.28,0,0,1,6.86-18.18c6.59-5.35,4.67-10.7,1.16-16.53-1.91-3.17-6.36-5.45,0-9.89,5.67-4-1.32-9.89-.85-15.08h7.24c2.7,3.93,11.45,2.62,9,11.06-1.61,10.71,7.69,19.28,5.54,30.17-.3,1.54,1,2.85,2.88,2.51s2-2,2.14-3.54c.91-8,1.82-16.07,3-26.72,3.81,8.38,1.71,14.74,2.4,20.75.26,2.26-.81,5.57,2.62,5.85,3,.24,4-2.85,4.14-5.11.36-5.93,2.71-10.83,6.28-15.47-1.78,10.34-3.95,20.48-3.65,31a22.64,22.64,0,0,0,1.92,8.73c.81,1.82,3.55,2.34,3.85-.19,1.21-10.31,7.61-18.64,9.72-28.56.38-1.77.26-4.17,2.59-4.13,3.74.07.94,3.62,1.88,4.68,3.91,4.39-1.85,12.61,5.84,15.42.39.14.5,2.44.08,3.45-1.48,3.57-5.06,7.16-2.35,11,2.82,4,7.76,1.23,11.7,1.94-1.32,8.34-6.74,14.71-10.1,22.07-1.3,2.83-3.3,5.26-1.65,8.41,1.94,3.71,4.14.87,6.6.39,5.18-1,2.67,3.72,3.37,6.07l-.71.41.71-.41c2.06.46,6.38-.8,2.9,3.93-.88,1.2-2.65,1.86-3.18,3.14-1.29,3.16-6.11,5.27-3.73,9.43,2.57,4.49,5.44-2.59,8.52-.46.43,4.68-5.42,5.54-5.53,9.81.42.41.82,1.12,1.22,1.12,4,0,9.81-4.41,11.23-.92,2.14,5.26-2.95,10.63-7,13.62-4.28,3.16-5.82,7.5-8.28,11.55-.65,1.05-1.35,2.16-.22,3.25a2,2,0,0,0,3.13-.15c4.25-7.15,10.31-2.42,15.25-2.07,10.62.74,12.64-.16,14.93-10.88.75-3.49,3-2.45,4.75-1.5a43.22,43.22,0,0,0,14.46,4.27c4,.57,8.17-.81,9.79-4.86,1.8-4.51-2.45-5.36-5.31-6.82-8.41-4.3-9.9-13.93-14.84-20.9-.43-.6,0-2.58.72-3.19a5.1,5.1,0,0,1,5.89-.5c2.55,1.45,4.52,3.94,7,5.58,5.82,3.88,12,5,18.55,1.42-8.34-14-19.83-25.8-33.83-37.89,9-1.25,15.46-1.33,22.2.33,9,2.22,11-.56,11.88-10.18.48-5.12-1.72-13.46,9.45-12.59,5.94.46,4.11-6.39,2.26-10.72-3.36-7.85-1.81-10.77,6.72-11.88-2.32-5.41-6.6-8.41-12.69-11.47,6.7-2.33,7.5-5.08,7.07-12.18-.49-8.13-.23-18.29,4.49-26.36,2.35-4,3.52-8.17,5-12.7,0,4.66-.15,9.34,0,14,.2,4.82-.32,8.71,5,13,3.6,2.94,1.68,13.39,1.78,20.48,0,4-5.45,9.32,3.81,10.15,3.43.31-1.93,7.1,1.71,7.53,10,1.21,4.06,6.15,3.91,10.94-.13,4.26-.12,10.77,6.15,12.85,3.78,1.25,8.8,14.8,6.65,18.2-1.17,1.84-2.91,3.6-1.26,5.7a4.6,4.6,0,0,0,5.82.86c4.89-2.78,11.89-3.35,11.7-12,8.32,4.94,7.52,13.56,10,20.48a15.17,15.17,0,0,1,.23,3.51c12.09.09,6.67,15.61,15.55,18.87,2.72,1,4.62,3.43,7.95,1.65,3.94-2.09.43-4.64.83-6.54.94-4.38,4.85-7.42,3.3-13.34-.9-3.44-3.52-8.26,1.24-13.31,2-2.16,1.19-12.77-7.43-15.84,5.25,4.27,13.55-3.22,16.47,6.06a2.1,2.1,0,0,0,3,1.07,2,2,0,0,0,.68-3.11c-9.65-10.33,2.88-23.07-3.48-33.76-.71-1.2.26-2.83,1.59-2.09,5,2.8,4.69-2.88,4.39-3.84-2.59-8.19,5-13.88,4.55-21.44a2.39,2.39,0,0,1,2.94-2.59c2,.46,1.76,2.34,1.18,3.71-1.46,3.49,3.46,7.19-.67,10.79-1.15,1,.59,4,2.35,4.15,6.81.54,5.36,5,4.09,9-1.53,4.87-3.12,9-.4,14.56,2.15,4.41-3.21,8.67-4.82,13.17-1.34,3.72-4.75,7.87,3.11,7.25.59-.05,1.87,1.06,1.81,1.49-2,15,10.44,7.26,15.81,10.47,2.27,1.36,5.17-1,6.64-3.47,1.81-3.07-.46-5.1-2.13-7.25s-3.69-4.15-4.78-6.59c-2.86-6.44-.38-9.69,7.74-9.34-2.19-4.88-3.65-9.58-3.27-14.79.36-4.86.93-7.54,5.93-3.49,5.93,4.8,13.39,6.4,19.93,10,1.59.87,3.22,2.27,4.2-.48a4.12,4.12,0,0,0-1.55-4.85c-2.49-2-6.19-2.25-8-5.53,6.37-1.65,8.72-7.89,5.09-14.75-2.89-5.46-9.16-10.37-.25-16,.7-.45,1-2.32.83-3.4-3.24-18,10.38-28.86,16.69-42.93-5.32,9.49-5.2,20.3-7.65,30.43-.68,2.77-2.41,6.11.85,7.06,7.25,2.1,5.24,7,4.09,11.66s-.75,7.85,2.64,11.64c4.17,4.67,1,11.23,1.94,16.84.52,3-2,8.36,2,8.4,4.85,0,3.21-5.66,3.19-9-.07-7.71.53-15.19,4.15-23a6.93,6.93,0,0,1,.69,7.12c-4.62,10.29-2.54,21.19-2.92,31.86-.07,2-.7,5,2.23,5.12,2.43.13,4.17-1.54,4.88-4.44,2.44-9.92,9-18.63,7.39-29.83-.45-3,1.43-6.45,2.75-11.78,4.22,7.18,5.13,13.71,6.53,20,.81,3.67.56,8.15,6.25,4.46,2.89-1.88,3.7.24,3.76,2.72.11,4,.29,7.94-1.22,11.82-2.2,5.67,3.15,6.76,5.88,8.62,4,2.7,3.93-1.52,4.6-4,.51-1.91,1.59-3.31,3.59-3.58,2.34-.31,2.89,1.49,3.52,3.29,1.92,5.41.93,14.15,11.15,10.44.55-.2,2.44,3.79,3.81,5.75,1.13,1.61,2.86,2.73,4.58,1.6,2.11-1.37.69-3.41-.2-4.81-4.69-7.38-9.74-14.51-13.65-22.43-1.39-2.83-4-6.07-.92-8,3.94-2.42,4.53,2.36,5.53,4.95,1.06,2.74,2.15,5.8,5.47,4.29,3.08-1.4,2.08-4.88,1.2-7.35a34.75,34.75,0,0,0-4.26-8c-3.65-5.33,1.14-3.55,3.13-4.16h0c6.87,7,7.88,17.58,14.89,24.69-.53-12.62-3-24.43-11.6-34.16-3.17-3.6-10.79-5.45-2.75-12.95,2.28-2.13-2.71-10.56-2.74-16.5,0-2.76-3.21-6.48.49-7.92,2.87-1.11,4.66,3,6.52,5.26.76.93,1,2.42,1.95,3,3.14,2.18,4.26,9.54,7.52,7.62,4.55-2.68-3.12-5.82-2.48-8.48,1.84-7.6-2.47-12.57-6.33-18.16,5.38-2,5.58,4.23,9.54,4.86,3.11-11.34.89-20.77-8.34-28.25-1.53-1.24-3.5-2.9-2-5.39a4.55,4.55,0,0,1,2.81-1.91c2.41-.46,3.79,1.06,4.7,3.26.62,1.54-.29,3.91,3,4.7,5.1-8,.55-14.14-4.17-19.74-3.23-3.84-6.68-7.06-3.85-12.64l3.55,0c2.26,8.22,4.47,16.49,14.3,18.43q0,166.16.15,332.32V2436h-7.12c-370.2-.22-747.67-.22-1117.88,0Zm582.46-103.1c-3.61,4,1,6,2.12,8.65,1.29,3.22,4.13,1.3,6.16.35,7.76-3.64,15.46-7.4,23.15-11.19,3.11-1.53,5.71-2.48,5.84,2.78.13,4.93,3.76,6,7.43,6.13,7.72.25,15.77,1.45,23.07-.35,5.24-1.3,9.76-2.72,15.27-1.66,3.52.67,8.93-.78,8.57-5.64-.38-5.24-4.91-4.18-9.06-3.58-7,1-14.34,4.4-20.76-3.43-3-3.7-9.51-1.93-14.15-3.25-6.81-1.94-13.63-3.94-19.21-9.7-7.53-7.76-10.37-8.14-18.46,4.27a21.43,21.43,0,0,1-3.09,3.16c-.25-3.42.69-8.64-4.92-6.85s-6.44,8.57-6.89,13.12c-.48,4.82,4,1.9,6.46,1.1C584,2329,584,2331.2,582.46,2332.9Zm57.31,32.7c3.71,0,6.67-1.21,6.51-5.63-.18-4.86-4.58-2.6-6-3.59-7.59-5.08-18.26-.45-24.36-8.86a4.57,4.57,0,0,0-2-1.16c-3.72,5.89-12,7.5-14.32,13.52-1.83,4.65.93,10.85,6.24,13.94,4.54,2.64,16.59.65,16.83-3.28.56-9.25,6.3-4.3,10-4.94Zm271.44-89.89a5.59,5.59,0,0,0-6.62,1.17c-3.8,3.93-7.49,7.28-13.63,6.87a6.83,6.83,0,0,0-6.73,5.09c-.53,2.55-1.53,5.93,1.27,7.54,3.1,1.78,3.85-1.68,5-3.61,2.24-3.75,3.37-6.7,6.53,0,1.92,4.09,7.4.75,11-.06,4.66-1,6.17-5.24,6.17-11.37C914.24,2279.94,914.19,2277.05,911.21,2275.71ZM350.09,2410.89c-2.27,0-1.84,3.25-.09,4,11.16,4.69,21.76,11.51,35.15,9.92-12.72-3.44-17.2-18.68-30.34-21.21C352.5,2405.5,355.7,2410.77,350.09,2410.89Zm-227-59.09c-1.21-5.74-1.66-12.6-7.7-16.18-2.46,4.77-11.9-1.53-11.53,7.86.32,8.22,4.37,12.78,12,12.9C118.86,2356,124.28,2357.47,123.1,2351.8Zm517.09-50.22c-1.83-4.42-18.52-9.76-22.62-7.18-1.87,1.18-4,3.3-4.37,5.31-.64,3.62,3,2.86,5,3.45,5.65,1.61,11.33,3.07,17.25,4.66C638.3,2306.91,642.26,2306.59,640.19,2301.58Zm-298,122.9c1.33-.48,2.09-1.34,1.76-2.63-.9-3.53-1.4-7.83-5.19-9s-8.32.37-11.6-3.9c-.84-1.09-4.43.49-4.95,3.27C322.66,2416.12,338.77,2425.74,342.24,2424.48ZM131.89,2355.4c.84,1.33,2.75,1,4.12.32a3.6,3.6,0,0,0,1.62-4c-1.13-7.4-5.89-12.53-11.08-17-1.86-1.6-4.66-.3-4.51,3.95C125.11,2344,128.36,2349.79,131.89,2355.4ZM492,2352.51c2.24,4.36,1.79,11.67,9.5,11.18,2.51-.15,4.55-1.48,3.41-3.93-2.17-4.66-2.16-11.29-9-12.38C493,2347.89,491.07,2350.75,492,2352.51Zm-13.07,4.9c1.32,1.22,2.67,2.92,4.47,1.22,1.27-1.19,2.84-3.47,1.65-4.79-3.08-3.4-2.94-7.46-3.75-11.51a5.19,5.19,0,0,0-6.18-4c-1.94.37-3,1.82-3.44,4.63C480.55,2344,474.5,2353.33,478.91,2357.41Zm-333.73-12.57c2.85.52,3.61-2.09,3-4.21-1.56-5.4-1.82-12.37-7.77-14.35-3.8-1.26-2,3.71-2.82,6.11C138.58,2337.45,138.26,2343.6,145.18,2344.84Zm664.93-14.32c-.74-3.48-3.42-7.2-7.39-6.5-2.36.42-7.49-.52-7,3.43.49,4.11,3.68,7.74,7.44,7C807.12,2333.91,811,2334.79,810.11,2330.52Zm82.36-73.61c-2.35,1.22-4.55,3-4.64,6.08-.05,1.83,1.28,2.6,2.85,2.75,3.36.33,6.76-.22,8.54-3.33,1.26-2.2,1.34-5.14,2.12-8.47C897.24,2253.37,895,2255.62,892.47,2256.91ZM24.17,2204c.51,1.62,1,3.77,3.26,3.69a3.26,3.26,0,0,0,2.91-3c.76-4.58,5.43-8.29,2.52-14.7C28.58,2194.66,21.71,2196.27,24.17,2204Zm-3.37,54.14c0-1.21-1.77-1.75-2.81-1-2.85,2.18-4,5.11-2.53,10.29C18.07,2263.85,20.73,2261.7,20.8,2258.18Zm192.67,115.21c-.55,0-1.74,1.06-1.69,1.53.43,4,4,3.6,7.47,6.15C218.74,2375.4,216.7,2373.67,213.47,2373.39Z"/></g></svg>