<svg xmlns="http://www.w3.org/2000/svg" xmlns:xlink="http://www.w3.org/1999/xlink" viewBox="0 0 1125 2436"><defs><style>.cls-1{fill:url(#linear-gradient);}.cls-2{fill:#6b6b6b;}.cls-3{fill:#515151;}.cls-4{fill:#444;}.cls-5{fill:#303030;}</style><linearGradient id="linear-gradient" x1="568.15" y1="63.89" x2="556.95" y2="2350.66" gradientUnits="userSpaceOnUse"><stop offset="0"/><stop offset="0.25" stop-color="#222"/><stop offset="0.58" stop-color="#484848"/><stop offset="0.84" stop-color="#5f5f5f"/><stop offset="1" stop-color="#686868"/></linearGradient></defs><title>8</title><g id="Fine"><rect class="cls-1" width="1125" height="2436"/><path class="cls-2" d="M369.93,1966.32c15.74-13.19,32.8-12.62,50.91-5.75,9.67,3.67,19.77,6.28,29.83,8.77,4.88,1.21,9.19-2.06,13.28-4.33,13-7.22,25.89-14.53,38.54-22.29,6.47-4,13.64-5.85,20.56-8.39,12.76-4.7,23.61-14.16,37.79-15.39,2.07-.18,4.11-2.28,5.93-3.79,13.86-11.47,17.54-11.56,34.05-1.24a74.38,74.38,0,0,0,15.88,7.63c18.59,6.29,36.46,14.34,52.62,25.78,6.64,4.7,13.85,7.2,21.77,6.53a244.68,244.68,0,0,0,53.12-10.77c4.24-1.34,8.24-3.86,12.8-3.55,19.17,1.32,35-7.85,50.21-17.45,11.62-7.36,22.78-15.34,36-19.32,17.84-5.36,34.63-1.66,50.46,7.34a234.84,234.84,0,0,1,21.15,13.4c6.71,4.82,13.76,7.07,21.68,4.74,14.26-4.19,28.7-6.51,42.35-14.19,21.37-12,42.21-28,69.33-23.81,2.79.43,5-1,7.2-2.81,20.3-16.54,42.91-26.92,69.59-26v188.13a8.41,8.41,0,0,1-2.57-.59c-13.41-8.52-26.51-14.59-39.19,1.57-2.44,3.1-6.85,4.61-10.36,6.85-1.89-.87-3.79-1.73-5.68-2.61-8.45-3.93-13.94-12.46-22.08-16.18-15.41-7-30.1-15.45-45.29-22.88-4.61-2.26-8.36-3.07-12.38-.35-7.12,4.83-14.53,4-22.27,2.26-10.41-2.38-20-.62-28.46,6.45a54.12,54.12,0,0,1-16.22,9.31c-30,10.89-56.52,4.81-80.06-16.5-4.82-4.35-9-10.18-16.09-10.61-6.34-.39-11.08-3.07-15.74-7.18-8.91-7.84-18.24-14.73-31.23-8.71-3.72,1.72-7.66-.09-10.75-2.68a129.27,129.27,0,0,1-11.23-10.2c-17.91-19.11-29.16-14.86-46.08-1.26-9.7,7.8-19.08,16.87-28.72,25.12-14.79,12.65-33.07,19.65-50,28.75-5.82-6.54-14.13-5.55-21.46-6.56-11-1.51-22.55-3.86-33.22-1.11-24.14,6.22-45.75,4.49-64-14.47-2.71-2.83-5.57-6.74-9.32-6.55-16.79.84-31.37-14-49-6.88-1.6.64-4.11-.45-6-1.23-4.06-1.69-7.25-.48-10.72,1.87-11,7.46-18.7,8.07-28.14-.53A239.63,239.63,0,0,0,369.93,1966.32Z"/><path class="cls-3" d="M0,2070.41V2436H1124.72V2198.86h.28v-153h-3c-5-15.8-52-12.67-64.56,3.34-.88,1.11-53.42,2.28-132.46-1.63-52.79-2.61-93.6-18.72-148.71-21.52-13.54-.69-30.17,6.37-42.86,5.73-42.95-2.15-80-4-103.7-4.93-5.8-5.88-13.8-5-20.9-6-11-1.51-22.56-3.85-33.23-1.11-24.14,6.22-45.75,4.49-64-14.47-2.72-2.83-5.57-6.74-9.32-6.55-16.8.84-31.37-14-49-6.88-1.6.64-4.12-.45-6-1.23-4.06-1.69-7.26-.48-10.73,1.87-11,7.46-18.7,8.07-28.14-.53a239.63,239.63,0,0,0-38.78-28.3c-21.19-8-35.56-25.35-52.49-39.2a2.19,2.19,0,0,1-.5-.75c-6.17-13.45-20.74-13.9-31.22-20.68-1.58-1-2.7.76-4,1-13.65,2.3-21.61,12.87-30.3,22-6.85,7.18-13.54,11.08-23.51,6.9-6.36-2.67-12.86-1.65-18.64,2.51-10.36,7.45-18.67,18.53-33.08,18.81a7.68,7.68,0,0,0-4.63,2.46c-10.35,10.58-24.13,16.34-35.22,25.89a24.59,24.59,0,0,1-9.18,5.31c-27.61,7.46-53.55,4.71-76.65-13.85-9.08-7.3-19-10.5-30.71-7.52-6.28,1.6-12.7,3.25-19.34,2.6V1994L0,2070.41m1119.35,28.92h0l0,0S1119.35,2099.34,1119.35,2099.33ZM9,2075.79l.09,0s0,0,0,.05Z"/><path class="cls-4" d="M.19,2067.17V2436h1125V2106.07a22.79,22.79,0,0,0-3.81-6.12l-.64.38c-.22-.56-.44-1.1-.67-1.64-5-4.51-10.76-8.52-12.16-15.91l-.06.11a.41.41,0,0,0-.11-.07.66.66,0,0,0-.2-.06c-1.28-.25-4.09,1.89-3-2h0a11.86,11.86,0,0,0-.74-1.83,13.47,13.47,0,0,0-1-1.65,18,18,0,0,0-1.14-1.5c-.41-.47-.83-.93-1.28-1.38-.22-.24-.44-.46-.67-.68l-1.37-1.31c-1.16-1.08-2.32-2.16-3.36-3.33-4.58-5.21-12.08-8.09-12.75-16.39-1.91-.88-3.83-1.74-5.73-2.63-8.54-4-14.08-12.52-22.29-16.26-15.53-7.08-30.36-15.54-45.67-23-4.66-2.27-8.45-3.08-12.5-.35-7.19,4.86-14.66,4-22.47,2.27-10.5-2.39-20.13-.62-28.7,6.49a54.75,54.75,0,0,1-16.36,9.36c-30.25,11-57,4.83-80.77-16.59-4.86-4.38-9.1-10.24-16.22-10.67-6.41-.39-11.18-3.09-15.89-7.22-9-7.88-18.4-14.81-31.5-8.76-3.75,1.73-7.72-.09-10.84-2.69a128.34,128.34,0,0,1-11.33-10.26c-18.07-19.21-29.42-14.94-46.49-1.26-9.78,7.84-19.25,17-29,25.25-14.91,12.72-33.36,19.76-50.47,28.91-5.81,11.35-17.38,17.3-26.2,12.47-14-7.67-28.1-6.2-42.51-2.19-2.58.71-5.21,1.92-7.8,1.87-10.29-.21-18,4.63-25.54,11.2-9.32,8.19-21,13-33,11.77-14.08-1.42-28-4-42.2-2.81a109.4,109.4,0,0,0-27.07,5.48c-7.5,2.64-13.43,8.45-20.64,10.43-10,2.75-20.92,1.74-30.88,4.47-13.41,3.68-23.57,2.16-32.25-9.94-9.22-12.85-22-15.29-36.44-8.72-8.49,3.87-17.47,7.61-26.85,5.24-20-5-38.48,2-55.28,9.92-18.86,8.83-38,7.56-57.11,8.28-11.58.44-22.42.42-33.82,4.4-14.07,4.92-27.06,16.27-43.85,10.47-3.61-1.25-7.61-1.36-11.45-1.87l-5.73-.77-.59-.08-.37,0c-1.11-.15-2.2-.32-3.31-.48s-2-.29-3-.45l-1.8-.29-2.19-.37-1.4-.25-1.8-.35c-.59-.11-1.19-.23-1.78-.36l-.82-.17-1-.22q-.85-.18-1.71-.39l-1.75-.43-.9-.24-1.28-.34c-.73-.2-1.45-.41-2.18-.63l-1.74-.55-.94-.32-1.6-.56c-.7-.25-1.41-.52-2.1-.79l-.92-.37-.76-.32-1.07-.46-.56-.25c-.82-.37-1.64-.76-2.44-1.17l-.57-.29c-.43-.22-.86-.44-1.28-.68l-.5-.27c-.29-.15-.57-.31-.85-.49l-.54-.31-1.19-.72-.25-.15L34,2082c-.41-.27-.84-.54-1.25-.82-.61-.4-1.2-.82-1.8-1.25-.43-.32-.87-.64-1.29-1s-.91-.69-1.35-1.07l-.52-.42-1.08-.92c-.44-.38-.87-.78-1.31-1.18l-.26-.24c-.43-.41-.87-.82-1.29-1.26C11,2067.81,0,2061.05.19,2067.17Zm894.45,272.26s0,0,0,0v0ZM541.2,2328.49h0v0h0Zm-5.36-7.27h0Z"/><path class="cls-5" d="M.19,2235.21V2436h1125V2210.66s-.71,2-9.93-3.49c-3.24-1.91-8.8-1.25-15.6.7h0a2.39,2.39,0,0,1-1.89.71,2.2,2.2,0,0,1-.36,0c-1.53.48-3.11,1-4.74,1.56h0c-3.85,1.35-7.93,2.91-12.1,4.52l-3.8,1.47c-2.62,1-5.24,2-7.84,3h0c-4.31,1.57-8.56,3-12.58,4.13-8.6,2.37-12.94,5.49-16,8.4-1.36,1.28-2.48,2.52-3.6,3.63-.35.35-.69.68-1,1-.17.15-.33.3-.51.44a13.19,13.19,0,0,1-1.12.85l0,0c-.16.11-.33.23-.51.33l-.09.05c-.21.13-.43.25-.66.37a7.32,7.32,0,0,1-.69.33,2.28,2.28,0,0,1-.36.15l-.44.18a16.51,16.51,0,0,1-3.68.85l-.73.08h-.08l-1.13.07-.59,0h-.62c-9.46.06-13.22-2.67-17.26-4.76a18.33,18.33,0,0,0-9.95-2.31c-11.5.39-15.64-7.41-18-14.61s-17.57-16.57-17.57-16.57L948.19,2191c-3.16-5.72-8.16-7.62-14.24-7.36-8.62.39-16.89-.33-25.17-3.77-13.71-5.69-27.23-5.25-41.13,1.59-7.38,3.62-14.44,7.93-21.81,11.55-5.2,2.56-10.68,0-15.47,2.93-11.11,6.79-24.07,6.5-36.14,9.57-12.67,3.2-21.09-9.2-32.53-11.85-3.68-.86-8.32-2.25-11.88-5.43-6.93-6.2-15.15-8.56-24.59-8.5a68.71,68.71,0,0,0-29,6.34c-5.43,2.48-12.67,7.44-17.07-3.1,0,.36,0,.72-.07,1.07-.14,2.32-.28,4.63-.43,7a39.65,39.65,0,0,1-9,1.22,21,21,0,0,1-12.09-3.61c-20.45-13.7-41.12-27.12-64.21-35.78-4.94-1.85-8.66-6.81-14.58-6l0,0,0,0c-.7-4.92-5.45-5.34-8.17-5.62-8.14-.83-14.33-5.43-20-10.25-8.56-7.3-15.55-6.89-24.48-.32-7.49,5.53-16.28,9.23-25,12.92-14.73,6.22-30.35,11.09-42.56,22.67a12.37,12.37,0,0,1-8.76,3.75c-.3-5.36-1.56-6.25-4.86-4.77h0c-.75,1.7-6.17,13.6-3.38.81-3.88,9.58-2.76,1.61-3.71,5-1.39,5-4.37-2.14-2.14,3.35-2.7,3.91-9.45-6.56-6.95,1.85a49.32,49.32,0,0,1-5.33-.16l-.89-.1h0c-.33,0-.65-.07-1-.12s-.86-.12-1.29-.19l-.12,0-.16,0h0c-.25,0-.5-.08-.75-.14a3,3,0,0,1-.32-.07l-1.12-.25-.42-.1-.31-.08-.76-.22a33.23,33.23,0,0,1-3.35-1.15c-.43-.16-.87-.34-1.31-.54-4.92-2.16-10.86-5.17-17.24-2.65a9.32,9.32,0,0,1-9.32-1.5c-8.21-6.47-17.61-8.3-27.73-7.37-2.33.21-5.25.65-7-.48-14.17-9.19-30.85-13.15-44-25-22-19.87-57.68-24.4-80.54-4.3-5.14,4.53-11.5,7.56-17,11.74-9.33,7.16-18.86,7.61-30,4.55-17.49-4.78-33.16-13-48.55-22.37-3.22-2-6.43-4-9.67-5.91-.82-.49-1.64-1-2.47-1.46l-.68-.39-1.24-.72-.81-.44-1.37-.77q-2.06-1.12-4.14-2.14c-.39-.2-.77-.38-1.16-.56l-.5-.25-1.14-.52c-.94-.42-1.88-.82-2.83-1.21s-1.91-.75-2.88-1.09c-.68-.23-1.36-.46-2-.67s-1.31-.4-2-.58l-.5-.13c-.39-.11-.78-.2-1.18-.3-.59-.15-1.18-.27-1.77-.39l-1.42-.27c-.51-.09-1-.16-1.53-.23-.33,0-.67-.09-1-.12s-.61-.08-.92-.1c-.47-.05-1-.09-1.42-.12s-.88-.06-1.33-.07-1.06,0-1.59,0h-.95l-.58,0q-.36,0-.72,0c-.38,0-.76,0-1.14.08s-.5,0-.75.06l-.7.06-.86.1-1.13.16-.61.1-.4.06-1.4.27c-2.75.57-5.11-.7-7.24-2.73-12-11.38-26.52-18.53-41.06-25.54-2.53-1.22-5.55-4.19-8.87-1.1l-3.55,0c0-.19,0-.39,0-.57L.34,2076.16.2,2235.21Z"/><path d="M1125.19,2436c-370.2-.22-747.67-.22-1117.88,0H.19v-7.75q.3-166.17.15-332.32c9.83-1.94,12-10.21,14.3-18.43l3.55,0c2.84,5.58-.61,8.8-3.85,12.64-4.72,5.6-9.27,11.73-4.16,19.74,3.26-.79,2.35-3.16,3-4.7.9-2.2,2.29-3.72,4.7-3.26a4.61,4.61,0,0,1,2.81,1.91c1.49,2.49-.47,4.15-2,5.39-9.23,7.48-11.44,16.91-8.33,28.25,3.95-.63,4.15-6.89,9.53-4.86-3.86,5.59-8.17,10.56-6.33,18.16.65,2.66-7,5.8-2.48,8.48,3.26,1.92,4.38-5.44,7.53-7.62.9-.62,1.19-2.11,1.94-3,1.86-2.27,3.66-6.37,6.52-5.26,3.71,1.44.5,5.16.49,7.92,0,5.94-5,14.37-2.73,16.5,8,7.5.42,9.35-2.75,12.95-8.57,9.73-11.07,21.54-11.6,34.16,7-7.11,8-17.73,14.88-24.69h0c2,.61,6.77-1.17,3.12,4.16a35.54,35.54,0,0,0-4.26,8c-.88,2.47-1.87,6,1.2,7.35,3.33,1.51,4.41-1.55,5.47-4.29,1-2.59,1.6-7.37,5.53-4.95,3.09,1.9.48,5.14-.92,8-3.91,7.92-8.95,15.05-13.64,22.43-.89,1.4-2.32,3.44-.21,4.81,1.73,1.13,3.46,0,4.59-1.6,1.37-2,3.26-6,3.8-5.75,10.23,3.71,9.23-5,11.15-10.44.64-1.8,1.18-3.6,3.52-3.29,2,.27,3.08,1.67,3.6,3.58.66,2.5.64,6.72,4.59,4,2.73-1.86,8.09-3,5.88-8.62-1.51-3.88-1.32-7.84-1.22-11.82.07-2.48.87-4.6,3.77-2.72,5.69,3.69,5.43-.79,6.25-4.46,1.39-6.28,2.3-12.81,6.52-20,1.33,5.33,3.21,8.74,2.76,11.78-1.67,11.2,5,19.91,7.38,29.83.71,2.9,2.45,4.57,4.89,4.44,2.92-.17,2.3-3.15,2.23-5.12-.38-10.67,1.7-21.57-2.92-31.86a6.89,6.89,0,0,1,.69-7.12c3.62,7.77,4.21,15.25,4.15,23,0,3.35-1.66,9.05,3.18,9,4,0,1.51-5.44,2-8.4,1-5.61-2.22-12.17,2-16.84,3.38-3.79,3.76-7.12,2.63-11.64s-3.15-9.56,4.1-11.66c3.26-1,1.52-4.29.85-7.06-2.46-10.13-2.33-20.94-7.66-30.43,6.31,14.07,19.94,24.94,16.69,42.93-.19,1.08.13,2.95.84,3.4,8.9,5.59,2.63,10.5-.26,16-3.63,6.86-1.28,13.1,5.1,14.75-1.77,3.28-5.47,3.49-8,5.53a4.12,4.12,0,0,0-1.55,4.85c1,2.75,2.61,1.35,4.21.48,6.53-3.56,14-5.16,19.92-10,5-4,5.58-1.37,5.93,3.49.38,5.21-1.08,9.91-3.27,14.79,8.13-.35,10.6,2.9,7.74,9.34-1.08,2.44-3.11,4.45-4.78,6.59s-3.93,4.18-2.13,7.25c1.48,2.5,4.37,4.83,6.65,3.47,5.37-3.21,17.81,4.56,15.8-10.47,0-.43,1.22-1.54,1.81-1.49,7.87.62,4.45-3.53,3.12-7.25-1.62-4.5-7-8.76-4.83-13.17,2.72-5.58,1.14-9.69-.4-14.56-1.26-4-2.71-8.45,4.09-9,1.76-.14,3.51-3.14,2.35-4.15-4.12-3.6.8-7.3-.67-10.79-.57-1.37-.8-3.25,1.19-3.71a2.4,2.4,0,0,1,2.94,2.59c-.43,7.56,7.13,13.25,4.54,21.44-.3,1-.61,6.64,4.4,3.84,1.32-.74,2.29.89,1.58,2.09-6.36,10.69,6.17,23.43-3.47,33.76a2,2,0,0,0,.68,3.11,2.09,2.09,0,0,0,3-1.07c2.93-9.28,11.22-1.79,16.47-6.06-8.61,3.07-9.46,13.68-7.43,15.84,4.76,5,2.14,9.87,1.24,13.31-1.55,5.92,2.37,9,3.3,13.34.41,1.9-3.1,4.45.83,6.54,3.33,1.78,5.24-.66,8-1.65,8.88-3.26,3.46-18.78,15.56-18.87a15.57,15.57,0,0,1,.22-3.51c2.49-6.92,1.7-15.54,10-20.48-.19,8.69,6.82,9.26,11.71,12a4.59,4.59,0,0,0,5.81-.86c1.65-2.1-.09-3.86-1.25-5.7-2.16-3.4,2.86-17,6.64-18.2,6.27-2.08,6.28-8.59,6.15-12.85-.15-4.79-6.06-9.73,3.92-10.94,3.63-.43-1.73-7.22,1.7-7.53,9.27-.83,3.76-6.18,3.82-10.15.1-7.09-1.82-17.54,1.77-20.48,5.29-4.33,4.76-8.22,5-13,.19-4.66,0-9.34,0-14,1.51,4.53,2.67,8.7,5,12.7,4.72,8.07,5,18.23,4.49,26.36-.43,7.1.37,9.85,7.07,12.18-6.09,3.06-10.36,6.06-12.69,11.47,8.53,1.11,10.08,4,6.72,11.88-1.85,4.33-3.67,11.18,2.26,10.72,11.17-.87,9,7.47,9.46,12.59.91,9.62,2.9,12.4,11.88,10.18,6.73-1.66,13.22-1.58,22.2-.33-14,12.09-25.49,23.92-33.83,37.89,6.52,3.56,12.73,2.46,18.54-1.42,2.47-1.64,4.45-4.13,7-5.58a5.11,5.11,0,0,1,5.89.5c.67.61,1.15,2.59.72,3.19-4.94,7-6.44,16.6-14.85,20.9-2.85,1.46-7.1,2.31-5.3,6.82,1.61,4,5.8,5.43,9.78,4.86a43.08,43.08,0,0,0,14.46-4.27c1.78-.95,4-2,4.75,1.5,2.29,10.72,4.31,11.62,14.94,10.88,4.93-.35,11-5.08,15.24,2.07a2,2,0,0,0,3.14.15c1.13-1.09.42-2.2-.22-3.25-2.47-4-4-8.39-8.29-11.55-4-3-9.12-8.36-7-13.62,1.42-3.49,7.28,1,11.23.92.4,0,.79-.71,1.21-1.12-.1-4.27-6-5.13-5.52-9.81,3.08-2.13,6,5,8.52.46,2.38-4.16-2.45-6.27-3.74-9.43-.52-1.28-2.3-1.94-3.18-3.14-3.47-4.73.85-3.47,2.91-3.93l.7.41-.71-.41c.71-2.35-1.81-7.09,3.38-6.07,2.46.48,4.65,3.32,6.59-.39,1.65-3.15-.35-5.58-1.64-8.41-3.37-7.36-8.79-13.73-10.11-22.07,3.94-.71,8.88,2.05,11.71-1.94,2.7-3.83-.87-7.42-2.35-11-.42-1-.32-3.31.08-3.45,7.69-2.81,1.92-11,5.83-15.42.94-1.06-1.86-4.61,1.88-4.68,2.33,0,2.22,2.36,2.6,4.13,2.1,9.92,8.5,18.25,9.72,28.56.3,2.53,3,2,3.84.19a22.47,22.47,0,0,0,1.93-8.73c.3-10.55-1.87-20.69-3.66-31,3.58,4.64,5.93,9.54,6.29,15.47.13,2.26,1.17,5.35,4.13,5.11,3.43-.28,2.36-3.59,2.62-5.85.7-6-1.41-12.37,2.4-20.75,1.21,10.65,2.11,18.68,3,26.72.17,1.52.26,3.18,2.13,3.54s3.19-1,2.88-2.51c-2.15-10.89,7.15-19.46,5.55-30.17-2.5-8.44,6.25-7.13,9-11.06h7.23c.48,5.19-6.52,11.12-.85,15.08,6.34,4.44,1.89,6.72,0,9.89-3.52,5.83-5.43,11.18,1.15,16.53A18.28,18.28,0,0,1,452,2223.9c-1.49,8.94,3.06,11.62,10.85,10.55a44.13,44.13,0,0,0,17.53-6.09c1.88-1.16,4-2,5.78-.39,1.92,1.76-.53,3.13-.94,4.72-2.09,8.06-7.88,12.63-14.39,16.47-1.76,1-4.6,1.36-3.45,4.17,1,2.34,3.71,1.65,5.6,1.14,5.73-1.55,11.72-2.68,17-5.32,8.39-4.21,7.44,1.94,7.76,6.69.25,3.72-2.71,5.19-5.35,6.59-11.34,6-21.67,14.08-34.08,17.92-1.08.33-2,1.29-1.24,3.3,15.17,2.76,29.54-1.22,43.59-7.06,3.85-1.6,7.64-7.94,10.93-5,3.59,3.18-.91,9.05-1.47,13.81a4.09,4.09,0,0,1-.9,1.56c-2,3-1.17,4.69,2.22,4.71,13.37.08,26.75.2,40.12-.08,4.18-.09,5.49-4.37,2.49-6.12-5.89-3.43-6.59-5.21-.39-8.82,3-1.75,0-4.3-.51-6.46-.94-4-1.19-7.62,4.56-6.93,4.41.52,6-4.41,4.47-5.41-5.11-3.26-1.85-7.31-2-10.71-.51-14.62.71-15.8,11.16-11.93-1.83-9-8.72-12.14-16.15-15.69,12.12-2.58,13.47-6.45,6.76-16.15-.69-1-1.73-1.82-2.13-2.91-.86-2.3-1.25-4.13,2.52-3.25,6.8,1.58,5.54-4.6,4.2-6.83-2.51-4.18-5.48-6.79,1.78-8.64,2-.53.77-4,1.52-5.84,3.94-9.73,3.49-20.84,8.84-30.11h0a59.09,59.09,0,0,1-1.31,12.72c-2.07,8.42,1.61,21.56,7.75,31.52a4.64,4.64,0,0,1,.33,3.54c-3.74,9.84,4.93,20.17-1.23,30a3.33,3.33,0,0,0,2.41,4.94c2,.3,3.37-1.07,4.1-2.88,1.18-2.95,2.22-6,3.67-9.91,2.32,3.62.51,5.85.17,8-1.19,7.22-6,15,3.72,20h0c1.45,5.18-3,10.33-.56,16.23,3.69-3.09,3.68-8.43,9.74-10.25-3,6.36-5.45,11.64-8,16.83-.77,1.54-1.18,3,.25,4s2.84.48,3.79-1c3.1-4.87,8.25-8,10.47-13.67,1.16-2.94,2.77-5.85,7-5.83-.55,6.75-5.54,10-8.23,14.58a15.56,15.56,0,0,0,1.33,18c2.86,3.28,4.08-5.4,7.81-6.41a12.25,12.25,0,0,1,2.76,0c-1.82,6.21-5.93,10.15-9.79,14.26-1.78,1.9-2.7,4.08-1.66,6.7.68,1.72,2.22,1.78,3.73,1.81,8.44.2,15.58-5,18.32-13.25.5-1.51.23-3.94,2.84-4,1.53,9.55,1.53,9.55,8.27,9.63-4.61,8.71-6.42,18.87-15.47,24.27-1.76,1-2,2.91-2.64,4.62-1.14,3.09-.67,4.95,3,4.19,6-1.25,11.47-2.89,12.81-10.57.54-3.12.17-6.92,3.83-9.79-.12,4.85,2.81,6.42,6.42,7.19,1.8.39,2.57-.83,3.45-2.17,2.88-4.39-2.6-5.38-3.39-9.13,3.78.23,8.08,1.32,8.3-4.69.17-4.92-.15-8.89-5.48-11.15-4.14-1.76-8.72-3.33-11.12-8.64l17.79,7.24c-4.27-5.47-.64-9.55-2.59-13.15s-7.78.11-10-5c8.37-1.37,15.92-1.24,22.89,4.21-2.82-8-7.29-14.09-14.94-18,11-4.81,11-4.81,4.29-20.53,5.71.62,9.51-.58,6.32-7.65-.78-1.72-2.11-3.33-.41-4.92,8-7.49,6.41-18.32,9.25-27.6h0c4,8,3,17,2.78,25.23-.17,5.8.93,6.75,5,6,5.75-1.09,5.75,2.86,4.18,5.65-2.83,5-3.62,9.15.14,14,1.26,1.63-.68,3.89-1.51,5.86a66.78,66.78,0,0,0-3.18,10.39c-.43,1.77-.3,3.83,2,4.41,2,.52,3.42-.65,4.28-2.41,1.48-3.06,1.41-7,5.37-10.17.73,9.21-6,15.43-5.65,23.51,3-.31,5.69-1.27,8.05.67h0c-5.79,10.55-.67,22.36-3.58,33.25-.13.25-.26.5-.38.75l.4-.73c2.5.65,3.4-3.49,6.36-2.19-.54,4.78-3.75,12.77-3.19,13.24,8,6.76,1.82,8.78-3,11.48a3.44,3.44,0,0,0-1.15,5.44c1.64,2.07,3.26.09,4.38-1.14,2.63-2.89,4.86-6.2,7.63-8.94,5.55-5.49,8.23-14,17.77-18.09a56.4,56.4,0,0,1-11,15.88c-2,2-4.86,4.75-3.26,7,5,7,1.52,13.83,0,22.67,16.38-10.73,18.61-28.68,27-42.47a54.84,54.84,0,0,1-8.78,28.38c-5.28,8.36-5.87,18.3-9.42,27.22-.62,1.56-.63,3.88,1,5a3.23,3.23,0,0,0,3.21-.43c6.27-7.5,15.22-13,17.06-23.87.62-3.67,1-7.48,3.88-11.34,2.66,5.93-.89,10.4-.53,15.23,1.3,17.37-7,31.68-14.67,46.12-.92,1.74-3.67,2.72-2.14,5.36,1.08,1.87,3.18,1.71,4.84,1.42,8.92-1.58,19,.25,25.22-9.37,1.21-1.9,3.07-1.36,4.81-.72,11.69,4.24,22.38-3.07,33.71-3.19,1.81,0,3.16-1.67,3.37-3.74.15-1.44-.57-2.12-2-2.23-21.06-1.59-21.06-1.59-26.2-19.09,15,4.26,27.89-1.42,39.93-9.59,4.64-3.15,11.79-3.77,12.63-11.52,12.37.29,6.73-6.14,2.93-11.87,7.19-.54,15.62,5.38,18.79-4.13,2.35-7-7.22-4.6-9.31-9.85,4.06-1.52,4.85-8.29,11.46-6-1.81-6.52-7.34-10-7.88-16.36,7.31,2.9,7.93-1.32,7-6.74-.27-1.59-2.83-2.92-1-4.77,9.06-9.41,9.38-21.37,9.37-33.46q0-6.61,0-13.22c4.7,8.39,2.09,17.63,3.94,26,1.68,7.65-5,18.65,7.33,22.85,1.71.58,1.34,3.33.69,5-1.07,2.83-.41,4.82,1,7.59,2.53,5,2.23,10.73-.07,15.93-1.6,3.63-4.59,8.47.23,9.93,4,1.2,3.66-5.07,4.71-8.26,1.68-5.11,7.78-13.44,12.54-15.74a110,110,0,0,0-13.78,37.77c5.33-2.1,7.93-5.52,10.12-9.56s1.94-13.46,7.65-10.54c4.69,2.39-.65,10-3.3,14.49-4.24,7.27-6.55,15.13-8.57,23.28,7.46-4.24,8.2-14.84,16.82-17.55-.76,5.78-4.65,9.79-7.66,14.27-1.49,2.23-4.33,4.34-.86,6.77,2.81,2,5.29,1.6,7-2.34s4.58-7.46,8.84-8.78c1.41,1.81.62,2.8-.14,3.72-2.29,2.79-5.7,5.66-1.57,9.21,3.55,3.05,7.9,4.51,12.33,1.65,4.27-2.76,3.55-6.38,1.44-10.35-1-1.83-4.65-4.63-1.48-5.8,3-1.1,5.29-5.41,9.38-3.07,6.2,3.55,5.09-1.37,4.12-4.36-1.77-5.46-4.59-10.55-6.36-16-1-3.2-3-3.32-5.42-3.37.49-2.87,1.37-6.31,4.89-4.43,10.64,5.67,7.24-1.77,6.61-7.08-.8-6.85-5-13.24-3.22-21.37,5.67,5.73,1.91,14.5,7.79,19.46,4.81-8.95,5.38-17.43.82-26.09,5.49-1.76,10.1-3,11.42,4.64.18,1,2.23,2.47,3.4,2.45,2.42,0,2.45-2.52,2.12-4.18-2.46-12.51,8.07-26.57-6.36-39.41,12.52,8.3,9.7-.5,10-5.58.37-5.88-4.08-8.51-7.53-11.72-2.24-2.08-6.08-2.69-5.76-7.6,4.27.34,9.31,6.85,12.35.18,3.95-8.64-7.11-5.57-8.84-10.42,3.06-2.79,6-1.13,9.06-.19s5.18-.87,6.69-3.27c1.8-2.87-.78-4.36-2.2-6.2-2.3-3-7.38-3.39-7.33-8.51,10.2,2.29,12,.16,8.93-10.44-.61-2.14-3.22-5-.81-6.59,6.07-4.09,3.62-9.23,2.58-14.35l0,0c5.93-2.38,3.65-8.18,4.42-12.43.95-5.29.53-10.84,3.23-15.95.6,8.6,4.3,16.79,1.9,25.56-.6,2.23-1.49,6.07,1.95,5.57,10.06-1.48,5.83,4.09,4.49,8.55-.69,2.29-2.34,5.55-1.46,6.87,5.18,7.74,1.11,15-.23,22.45-2.82,8.47,2.89,14.76,7.06,19.75,2.72,3.25,3,4.67,2.14,8-1.07,4.41-5.33,9.49-2.95,12.95,3.78,5.5,1.82,8.87-.91,13.11-1.09,1.7-2.62,3.88-.76,5.87,1.7,1.82,3.2-3.11,5.32-.61-.23,4.55-2.86,7.78-5.06,11.42-1.89,3.13,7,7.92,13.14,5.73-4,7.55.36,8.9,5.47,9,7.3.2,14,3.45,21.26,4.08,4.42.39,7.28-.25,8.32-4.25s.06-8.1-4.83-9.25c-5.94-1.41-9.86-5.78-13.14-10.4-2.74-3.85-3.92-9.72-2.08-13.61,2.16-4.57,6,1.12,9.31,1,.5,0,1-.48,1.94-1-2.43-5.3-6.73-10.15-5-16.72.59-2.89,1.17-5.78,1.84-9.07,12.64,6.36,23.63,16.26,39.19,17.47-2.44-4.92-3.81-9.19-8.88-10.57-4.22-1.14-8.51-2.59-9.3-8.65,1.37,0,2.81-.47,3.59.07,8.42,5.85,7.36-.63,7.51-6,.23-8.82-4.63-15.58-8.27-22.86-.47-.93-.28-2.23-.38-3.3,3.56-.58,3.55,4.11,6.34,3.92,2-7.14,2.61-13.78-2.43-20-.87-1.09-2.34-8.66,1.49-6.77,5.33,2.62,4.15-1.5,4.7-2.94.85-2.23.5-5,3.73-5.39,4.71.72,3.47,4.61,3.81,7.66-.17,12.17-.13,12.2,10,8.73,1.7,6-1,11.44-2.08,17-.65,3.29-2.35,7.22,1.28,9.1,7,3.6,5.87,9.9,4.38,15.06-2.39,8.21,0,15.37,2.29,23.05,3.27-5.56,6-11.5,5.23-17.88-1.11-9.51,3.63-17.81,4.11-26.92.15-2.8,2.42-4,5-4.25-.64,3-.86,6.14-2,8.89-6.08,14.61-1.8,30.39-5,45.34-.8,3.77,1.3,6.42,5.51,6.61,3.34.14,5.77-1.47,4.81-4.73-2-6.74,2.77-11.49,3.79-17.28,3.8,3,2.89,7.72,4.17,11.65.86,2.61,2.92,5.3,5.9,4.45,3.9-1.13,1.29-4.56.44-5.93-3.06-4.92-4.72-11.12-10.47-13.89.5-2.29-2.91-4.79-.3-6.64,2.4-1.69,4.27.82,6,2.4,1.08,1,2.26,2.41,3.75,1.31s1-2.89-.22-3.89c-8.92-7.29-13.47-17.28-16.47-28.25-2.16-6.25-4.67-12.47-1.54-19.44,4.78,12.79,4.78,12.79,19.46,18.52.74.26-.08-.57-1-.76-1.85-.37-.62,1.34-.53,1.48a21.18,21.18,0,0,0,2,2.45c.37-.6.75-1.2-.45-3.17,6-12.91-7.37-10.61-11.16-14.76,4-2.63,7.88,2.84,11.94-.38-3.74-4-9.23-5.67-9.87-11.65,6.63,1.42,10.14,8.13,16.65,10.62.91-2.89-.52-6.49,3.65-8.07,2.2-.83,1.59-4.26-.49-6.25-2.38-3-.56-6.12-.21-9.19,2-1.55,1.18-2.73-.28-4.15-4.43-4.32-2.35-7,2.28-8.93,6.74-4.3,3.5-8.42-.57-11.89-4.34-3.69-9.46-6.52-11.49-13,6.18-.12,8,7.51,13.7,6.38l7.22,7.56c0,100.31.06,208.36.27,308.67Zm-584-109.19c2.49.8,6.94,3.72,6.46-1.1-.45-4.55-1.31-11.33-6.89-13.12s-4.67,3.43-4.91,6.85a22,22,0,0,1-3.1-3.16c-8.08-12.41-10.93-12-18.46-4.27-5.58,5.76-12.4,7.76-19.21,9.7-4.63,1.32-11.1-.45-14.14,3.25-6.43,7.83-13.72,4.44-20.76,3.43-4.15-.6-8.68-1.66-9.07,3.58-.35,4.86,5.05,6.31,8.57,5.64,5.52-1.06,10,.36,15.27,1.66,7.31,1.8,15.35.6,23.07.35,3.68-.12,7.31-1.2,7.43-6.13.14-5.26,2.73-4.31,5.84-2.78,7.69,3.79,15.4,7.55,23.16,11.19,2,.95,4.86,2.87,6.16-.35,1.06-2.65,5.72-4.68,2.12-8.65C541.19,2331.2,541.2,2329,541.2,2326.81Zm-48.64,38.79c3.72.64,9.47-4.31,10,4.94.24,3.93,12.3,5.92,16.83,3.28,5.31-3.09,8.08-9.29,6.24-13.94-2.37-6-10.6-7.63-14.32-13.52a4.62,4.62,0,0,0-2,1.16c-6.1,8.41-16.77,3.78-24.35,8.86-1.48,1-5.88-1.27-6.05,3.59-.17,4.42,2.79,5.65,6.51,5.63ZM211,2281.35c0,6.13,1.5,10.33,6.17,11.37,3.61.81,9.09,4.15,11,.06,3.15-6.71,4.29-3.76,6.52,0,1.15,1.93,1.9,5.39,5,3.61,2.8-1.61,1.8-5,1.27-7.54a6.83,6.83,0,0,0-6.74-5.09c-6.14.41-9.83-2.94-13.63-6.87a5.58,5.58,0,0,0-6.61-1.17C211,2277.05,211,2279.94,211,2281.35Zm559.4,122.24c-13.13,2.53-17.61,17.77-30.34,21.21,13.4,1.59,24-5.23,35.16-9.92,1.74-.74,2.17-4-.1-4C769.49,2410.77,772.69,2405.5,770.38,2403.59Zm238.93-47.21c7.65-.12,11.69-4.68,12-12.9.37-9.39-9.07-3.09-11.53-7.86-6,3.58-6.49,10.44-7.69,16.18S1006.34,2356,1009.31,2356.38Zm-519.56-48.56c5.92-1.59,11.61-3.05,17.25-4.66,2-.59,5.63.17,5-3.45-.35-2-2.5-4.13-4.36-5.31-4.1-2.58-20.8,2.76-22.63,7.18C482.93,2306.59,486.9,2306.91,489.75,2307.82Zm313.18,104.37c-.51-2.78-4.1-4.36-4.94-3.27-3.28,4.27-7.76,2.68-11.61,3.9s-4.29,5.5-5.18,9c-.33,1.29.42,2.15,1.75,2.63C786.43,2425.74,802.53,2416.12,802.93,2412.19Zm200.23-73.46c.14-4.25-2.66-5.55-4.52-3.95-5.18,4.44-9.94,9.57-11.08,17a3.6,3.6,0,0,0,1.62,4c1.37.72,3.29,1,4.12-.32C996.83,2349.79,1000.08,2344,1003.16,2338.73Zm-373.87,8.65c-6.83,1.09-6.81,7.72-9,12.38-1.14,2.45.9,3.78,3.4,3.93,7.71.49,7.26-6.82,9.5-11.18C634.12,2350.75,632.19,2347.89,629.29,2347.38Zm24.25-4.43c-.45-2.81-1.51-4.26-3.44-4.63a5.19,5.19,0,0,0-6.19,4c-.81,4.05-.66,8.11-3.74,11.51-1.2,1.32.37,3.6,1.64,4.79,1.81,1.7,3.15,0,4.47-1.22C650.7,2353.33,644.65,2344,653.54,2343Zm334.06-10.56c-.82-2.4,1-7.37-2.81-6.11-6,2-6.22,8.95-7.77,14.35-.61,2.12.14,4.73,3,4.21C986.94,2343.6,986.62,2337.45,987.6,2332.39Zm-665.54,2c3.76.77,7-2.86,7.44-7,.46-3.95-4.66-3-7-3.43-4-.7-6.66,3-7.4,6.5C314.17,2334.79,318.08,2333.91,322.06,2334.42Zm-98.2-80.48c.77,3.33.85,6.27,2.12,8.47,1.78,3.11,5.17,3.66,8.53,3.33,1.58-.15,2.9-.92,2.85-2.75-.08-3.13-2.28-4.86-4.64-6.08S228,2253.37,223.86,2253.94Zm868.48-63.88c-2.91,6.41,1.75,10.12,2.52,14.7a3.26,3.26,0,0,0,2.91,3c2.26.08,2.74-2.07,3.26-3.69C1103.49,2196.27,1096.61,2194.66,1092.34,2190.06Zm17.39,77.45c1.45-5.18.33-8.11-2.52-10.29-1-.79-2.84-.25-2.82,1C1104.47,2261.7,1107.12,2263.85,1109.73,2267.51ZM905.94,2381.07c3.49-2.55,7-2.15,7.48-6.15.05-.47-1.15-1.58-1.7-1.53C908.49,2373.67,906.45,2375.4,905.94,2381.07Z"/></g></svg>