<svg xmlns="http://www.w3.org/2000/svg" xmlns:xlink="http://www.w3.org/1999/xlink" viewBox="0 0 1450 3200"><defs><style>.cls-1{fill:url(#linear-gradient);}.cls-2{fill:#f96446;}.cls-3{fill:#e82a2a;}.cls-4{fill:#9b0505;}.cls-5{fill:#7f1212;}.cls-6{fill:#4f0000;}</style><linearGradient id="linear-gradient" x1="732.43" y1="84" x2="717.71" y2="3087.83" gradientUnits="userSpaceOnUse"><stop offset="0" stop-color="#ff2c2c"/><stop offset="0.12" stop-color="#ff3934"/><stop offset="0.5" stop-color="#ff5f4d"/><stop offset="0.81" stop-color="#ff765c"/><stop offset="1" stop-color="#ff7f61"/></linearGradient></defs><title>5_1</title><g id="Fine"><rect class="cls-1" width="1450" height="3200"/><path class="cls-2" d="M973.29,2594.73c-20.29-17-42.27-16.25-65.61-7.4-12.47,4.73-25.48,8.1-38.44,11.3-6.29,1.56-11.85-2.65-17.11-5.58-16.71-9.31-33.37-18.72-49.67-28.72-8.35-5.11-17.58-7.54-26.5-10.82-16.44-6.05-30.42-18.24-48.7-19.83-2.67-.23-5.29-2.94-7.64-4.88-17.85-14.78-22.6-14.9-43.87-1.6a95.42,95.42,0,0,1-20.47,9.83c-24,8.1-47,18.49-67.8,33.22-8.57,6.06-17.86,9.29-28.06,8.41A315.2,315.2,0,0,1,491,2564.8c-5.46-1.74-10.62-5-16.49-4.58-24.71,1.69-45.13-10.11-64.7-22.5-15-9.47-29.36-19.75-46.43-24.88-23-6.91-44.62-2.15-65,9.46a303.77,303.77,0,0,0-27.26,17.25c-8.65,6.23-17.73,9.12-27.94,6.12-18.37-5.4-37-8.39-54.57-18.28-27.54-15.51-54.4-36.09-89.34-30.7-3.6.56-6.4-1.27-9.28-3.61-26.16-21.32-55.3-34.69-89.68-33.56V2702c1.11-.25,2.4-.19,3.31-.77,17.28-11,34.17-18.8,50.51,2,3.14,4,8.83,5.94,13.34,8.82,2.44-1.12,4.89-2.22,7.32-3.35,10.9-5.08,18-16.06,28.46-20.86,19.86-9.07,38.79-19.91,58.36-29.48,5.95-2.91,10.78-4,16-.45,9.17,6.22,18.73,5.19,28.7,2.91,13.41-3.07,25.73-.8,36.67,8.31a69.68,69.68,0,0,0,20.9,12c38.64,14,72.84,6.21,103.18-21.25,6.21-5.61,11.62-13.12,20.72-13.68,8.18-.5,14.28-4,20.29-9.24,11.49-10.11,23.51-19,40.25-11.23,4.79,2.22,9.86-.12,13.85-3.46a163.92,163.92,0,0,0,14.47-13.14c23.09-24.63,37.58-19.15,59.38-1.62,12.5,10.05,24.59,21.73,37,32.36,19,16.3,42.61,25.33,64.47,37.06,7.51-8.43,18.21-7.16,27.66-8.46,14.16-1.95,29.07-5,42.81-1.43,31.11,8,59,5.79,82.45-18.65,3.5-3.64,7.18-8.68,12-8.44,21.64,1.09,40.42-18,63.15-8.87,2.07.83,5.31-.57,7.74-1.58,5.23-2.18,9.35-.62,13.82,2.41,14.15,9.61,24.1,10.4,36.26-.68C938.76,2617.14,955.54,2605.36,973.29,2594.73Z"/><path class="cls-3" d="M1450,2728.88l-.19-98.47v-32.08c-8.56.84-16.83-1.28-24.93-3.35-15.09-3.84-27.87.29-39.57,9.69-29.77,23.92-63.2,27.47-98.78,17.85-4.26-1.14-8.41-3.89-11.83-6.84-14.29-12.31-32-19.73-45.38-33.36-1.54-1.58-4-3.14-6-3.17-18.57-.36-29.28-14.64-42.63-24.24-7.45-5.36-15.82-6.68-24-3.24-12.85,5.39-21.47.36-30.3-8.89-11.2-11.71-21.45-25.34-39-28.3-1.72-.28-3.16-2.58-5.2-1.26-13.5,8.74-32.28,9.32-40.23,26.65a2.83,2.83,0,0,1-.64,1c-21.82,17.85-40.34,40.22-67.65,50.52-17.74,10.62-34.52,22.4-50,36.47-12.17,11.08-22.11,10.3-36.26.68-4.47-3-8.6-4.59-13.83-2.41-2.42,1-5.67,2.41-7.73,1.59-22.73-9.18-41.51,10-63.16,8.86-4.83-.24-8.51,4.8-12,8.44-23.48,24.44-51.33,26.67-82.44,18.65-13.75-3.53-28.66-.51-42.82,1.43-9.15,1.26-19.46.1-26.93,7.68-30.53,1.25-78.29,3.58-133.64,6.36-16.35.82-37.78-8.28-55.23-7.39-71,3.61-123.61,24.37-191.64,27.73-101.85,5-169.56,3.53-170.69,2.1-16.19-20.63-76.72-24.66-83.2-4.3H.25v197.17H.61V3200H1450V2728.88M7.52,2766.18l0,0h0S7.52,2766.17,7.52,2766.18Zm1430.74-30.28s0,0,0-.06a.45.45,0,0,0,.11,0Z"/><path class="cls-4" d="M1419.21,2733.34c-.54.56-1.11,1.09-1.66,1.62l-.34.31c-.57.52-1.12,1-1.69,1.52l-1.39,1.19-.67.54c-.57.48-1.16.93-1.74,1.38s-1.11.84-1.66,1.24c-.77.56-1.54,1.1-2.32,1.62-.53.36-1.08.7-1.61,1l-.26.17-.32.19c-.52.32-1,.64-1.54.93-.23.15-.46.28-.69.41s-.72.42-1.1.62c-.22.11-.42.23-.64.35-.54.31-1.1.59-1.65.88l-.73.37c-1,.52-2.09,1-3.15,1.51l-.72.32c-.46.21-.93.4-1.38.6l-1,.4c-.39.17-.77.32-1.18.48-.89.35-1.81.7-2.71,1l-2.06.73-1.21.4-2.25.71c-.94.29-1.86.56-2.81.82l-1.65.44c-.38.1-.77.21-1.16.3l-2.25.55c-.73.18-1.47.35-2.2.51l-1.31.28c-.34.08-.69.16-1,.22-.76.17-1.54.33-2.3.47s-1.53.3-2.32.44l-1.8.32c-.93.17-1.88.33-2.82.48l-2.32.38c-1.29.21-2.58.4-3.87.58s-2.83.42-4.26.61l-.48.07-.76.1-7.38,1c-5,.66-10.11.8-14.76,2.41-21.64,7.47-38.38-7.15-56.51-13.49-14.69-5.13-28.66-5.1-43.58-5.68-24.64-.93-49.29.72-73.6-10.67-21.65-10.17-45.43-19.28-71.23-12.78-12.09,3-23.66-1.77-34.6-6.75-18.68-8.47-35.08-5.32-47,11.24-11.19,15.58-24.28,17.55-41.56,12.81-12.84-3.52-27-2.23-39.8-5.77-9.29-2.55-16.93-10-26.59-13.43a140,140,0,0,0-34.89-7.06c-18.34-1.57-36.24,1.79-54.38,3.61-15.43,1.54-30.45-4.61-42.46-15.17-9.65-8.46-19.65-14.69-32.91-14.43-3.34.06-6.73-1.49-10.06-2.41-18.57-5.16-36.74-7.06-54.78,2.82-11.36,6.23-26.27-1.44-33.76-16.07-22-11.79-45.83-20.86-65-37.25-12.53-10.69-24.73-22.44-37.33-32.54-22-17.62-36.63-23.13-59.91,1.63a166.6,166.6,0,0,1-14.6,13.22c-4,3.35-9.14,5.7-14,3.47-16.88-7.8-29,1.12-40.59,11.28-6.07,5.33-12.22,8.8-20.48,9.31-9.18.55-14.64,8.11-20.9,13.74-30.62,27.61-65.11,35.49-104.09,21.38a70.45,70.45,0,0,1-21.08-12.06c-11.05-9.16-23.46-11.44-37-8.36-10.06,2.3-19.69,3.33-28.95-2.93-5.22-3.52-10.11-2.47-16.11.46-19.73,9.62-38.84,20.52-58.85,29.64-10.58,4.82-17.72,15.87-28.73,21-2.45,1.14-4.92,2.25-7.38,3.38-.87,10.7-10.53,14.41-16.43,21.12-1.34,1.51-2.84,2.9-4.33,4.3-.6.56-1.19,1.11-1.77,1.68-.3.29-.58.57-.86.87-.58.58-1.12,1.18-1.65,1.79a20.9,20.9,0,0,0-1.47,1.93,16,16,0,0,0-1.25,2.12,14.91,14.91,0,0,0-.95,2.36v0c1.34,5.05-2.29,2.29-3.94,2.61a.92.92,0,0,0-.25.08.48.48,0,0,0-.14.09l-.08-.14c-1.81,9.52-9.27,14.69-15.67,20.5-.3.7-.58,1.4-.87,2.11l-.82-.48A29.26,29.26,0,0,0,0,2774.83V3200H1449.75V2724.7C1450,2716.82,1435.77,2725.53,1419.21,2733.34ZM297.09,3075.55v0s0,0,0,0Zm455.48-14.07h0v0h0Zm6.89-9.38h0Z"/><path class="cls-5" d="M1449.74,2941.25l-.18-205-18.4,2.72c0,.23,0,.48,0,.73l-4.58,0c-4.27-4-8.17-.16-11.43,1.41-18.73,9-37.46,18.25-52.91,32.92-2.74,2.61-5.78,4.25-9.33,3.52l-1.8-.35-.52-.07a6.68,6.68,0,0,0-.78-.13c-.49-.08-1-.15-1.46-.21l-1.11-.14-.9-.07c-.32,0-.64-.07-1-.08-.49,0-1-.08-1.47-.09-.31,0-.61,0-.92,0l-.75,0H1341c-.68,0-1.36,0-2,0s-1.15,0-1.72.09-1.22.08-1.83.14c-.4,0-.8.08-1.18.13s-.88.09-1.31.16c-.65.09-1.31.18-2,.3l-1.83.34c-.76.16-1.52.32-2.28.5-.51.13-1,.25-1.52.39l-.64.17q-1.31.35-2.55.75c-.88.26-1.76.57-2.63.87-1.25.43-2.48.9-3.71,1.4s-2.44,1-3.65,1.56l-1.47.67-.65.31-1.49.72q-2.68,1.32-5.34,2.77l-1.76,1c-.35.19-.7.38-1,.58l-1.6.92-.88.51-3.18,1.87c-4.18,2.51-8.31,5.09-12.46,7.62-19.84,12.06-40,22.67-62.57,28.83-14.4,3.95-26.69,3.37-38.71-5.86-7-5.39-15.23-9.3-21.86-15.13-29.45-25.9-75.46-20.07-103.78,5.55-16.89,15.27-38.38,20.38-56.64,32.22-2.27,1.46-6,.89-9,.62-13-1.2-25.16,1.16-35.74,9.5a12,12,0,0,1-12,1.93c-8.22-3.25-15.88.63-22.22,3.42-.56.25-1.13.48-1.68.69-1.46.58-2.89,1.08-4.32,1.49l-1,.27-.4.11-.54.13c-.48.12-1,.22-1.45.32a2.48,2.48,0,0,1-.41.08c-.32.08-.64.13-1,.19h0l-.21,0-.15,0c-.56.09-1.11.18-1.67.24s-.83.12-1.26.16h0l-1.15.12a62.22,62.22,0,0,1-6.87.21c3.22-10.84-5.47,2.66-9-2.39,2.87-7.06-1,2.14-2.76-4.31-1.23-4.38.22,5.89-4.78-6.45,3.59,16.48-3.39,1.14-4.36-1.05h0c-4.25-1.92-5.88-.76-6.26,6.15-4.5.17-8.44-2.14-11.29-4.84-15.74-14.92-35.87-21.2-54.85-29.21-11.27-4.76-22.6-9.53-32.25-16.65-11.51-8.47-20.52-9-31.55.41-7.29,6.21-15.27,12.14-25.76,13.21-3.51.36-9.63.91-10.53,7.24l0,0,0,0c-7.63-1-12.42,5.35-18.79,7.74-29.76,11.15-56.39,28.45-82.75,46.1a27,27,0,0,1-15.58,4.66,50.92,50.92,0,0,1-11.63-1.57c-.2-3-.38-6-.56-9,0-.46-.06-.92-.09-1.38-5.67,13.59-15,7.19-22,4a88.79,88.79,0,0,0-37.41-8.17c-12.17-.08-22.76,3-31.69,11-4.59,4.09-10.57,5.89-15.31,7-14.74,3.42-25.59,19.4-41.92,15.27-15.56-3.94-32.26-3.58-46.57-12.32-6.18-3.76-13.24-.49-19.94-3.78-9.5-4.66-18.6-10.22-28.11-14.89-17.91-8.81-35.33-9.37-53-2-10.67,4.43-21.33,5.36-32.43,4.86-7.84-.34-14.28,2.11-18.35,9.48l-17.31,13.76s-19.6,12.09-22.64,21.36-8.38,19.32-23.2,18.83a23.52,23.52,0,0,0-12.82,3c-5.21,2.69-10,6.22-22.24,6.14-.27,0-.55,0-.8,0l-.76,0-1.46-.09a.18.18,0,0,0-.1,0c-.32,0-.65-.06-.94-.1a22,22,0,0,1-4.75-1.1l-.56-.23a2.72,2.72,0,0,1-.47-.19c-.31-.13-.6-.28-.89-.42s-.58-.32-.85-.49l-.11-.06c-.23-.13-.45-.28-.66-.42l-.06,0a17.26,17.26,0,0,1-1.45-1.1,7,7,0,0,1-.65-.57c-.47-.39-.91-.82-1.36-1.27-1.44-1.43-2.88-3-4.64-4.68-4-3.75-9.56-7.77-20.64-10.83-5.18-1.43-10.66-3.29-16.21-5.32h0c-3.35-1.22-6.72-2.5-10.1-3.8l-4.9-1.89c-5.37-2.07-10.63-4.09-15.59-5.82h0c-2.1-.72-4.14-1.41-6.11-2a3.59,3.59,0,0,1-.46,0,3,3,0,0,1-2.44-.92h0c-8.76-2.5-15.93-3.35-20.1-.89-11.88,7-12.8,4.5-12.8,4.5V3200H1449.75V2941.25Z"/><path class="cls-6" d="M0,3200c.27-129.27.36-268.51.36-397.77l9.29-9.75c7.42,1.46,9.69-8.37,17.66-8.22-2.62,8.39-9.21,12-14.8,16.8-5.25,4.47-9.43,9.77-.73,15.31,6,2.48,8.63,5.94,2.93,11.51-1.88,1.84-3,3.36-.36,5.35.45,4,2.8,8-.27,11.85-2.69,2.56-3.46,7-.64,8.05,5.38,2,3.53,6.68,4.71,10.4,8.39-3.21,12.92-11.85,21.45-13.69-.82,7.7-7.89,9.9-12.71,15,5.23,4.14,10.2-2.9,15.38.49-4.88,5.35-22.05,2.38-14.38,19-1.55,2.53-1.06,3.31-.57,4.08a28.51,28.51,0,0,0,2.57-3.15c.12-.19,1.7-2.38-.68-1.91-1.21.24-2.27,1.31-1.32,1C46.8,2877,46.8,2877,53,2860.5c4,9,.81,17-2,25.05-3.87,14.14-9.73,27-21.23,36.41-1.57,1.28-2.26,3.55-.28,5s3.44-.41,4.83-1.68c2.25-2.05,4.67-5.28,7.75-3.1,3.37,2.38-1,5.6-.38,8.56-7.41,3.57-9.54,11.55-13.49,17.9-1.1,1.76-4.46,6.19.57,7.63,3.84,1.1,6.49-2.37,7.59-5.73,1.66-5.06.48-11.17,5.38-15,1.32,7.46,7.46,13.58,4.89,22.27-1.24,4.2,1.89,6.28,6.19,6.09,5.43-.24,8.14-3.66,7.11-8.51-4.09-19.27,1.43-39.61-6.41-58.44-1.47-3.54-1.75-7.61-2.58-11.44,3.38.29,6.3,1.86,6.49,5.47.63,11.74,6.73,22.43,5.3,34.69-1,8.22,2.53,15.87,6.74,23,2.9-9.89,6-19.12,3-29.7-1.93-6.66-3.33-14.77,5.64-19.41,4.68-2.42,2.49-7.49,1.65-11.72-1.42-7.18-4.87-14.16-2.68-21.92,13.07,4.47,13.11,4.44,12.9-11.25.44-3.92-1.16-8.94,4.91-9.87,4.16.49,3.71,4.08,4.81,6.95.71,1.86-.82,7.17,6,3.79,4.94-2.44,3,7.31,1.92,8.72-6.49,8.07-5.67,16.62-3.13,25.83,3.6.24,3.58-5.8,8.18-5.06-.14,1.39.11,3-.49,4.26-4.7,9.38-11,18.09-10.66,29.46.18,6.87-1.18,15.22,9.67,7.68,1-.7,2.86-.1,4.62-.1-1,7.82-6.54,9.68-12,11.15-6.54,1.78-8.31,7.28-11.45,13.62,20.06-1.55,34.22-14.31,50.51-22.5.85,4.23,1.61,8,2.36,11.68,2.25,8.47-3.28,14.71-6.41,21.55,1.22.64,1.85,1.24,2.5,1.26,4.22.13,9.21-7.21,12-1.31,2.36,5,.84,12.57-2.68,17.54-4.23,5.95-9.29,11.59-16.93,13.39-6.32,1.49-7.62,6.65-6.24,11.93s5,6,10.72,5.48c9.4-.82,18-5,27.41-5.27,6.58-.18,12.2-1.92,7-11.64,8,2.82,19.38-3.35,16.94-7.38-2.84-4.7-6.22-8.86-6.52-14.72,2.73-3.22,4.66,3.13,6.86.78,2.39-2.56.42-5.38-1-7.56-3.52-5.47-6.05-9.81-1.17-16.89,3.07-4.46-2.42-11-3.8-16.69-1.05-4.3-.75-6.13,2.76-10.32,5.37-6.42,12.72-14.52,9.09-25.44-1.72-9.58-7-19-.3-28.93,1.14-1.7-1-5.9-1.88-8.86-1.72-5.75-7.18-12.93,5.79-11,4.44.65,3.29-4.3,2.51-7.17-3.08-11.31,1.68-21.87,2.46-32.94,3.48,6.58,2.93,13.74,4.16,20.55,1,5.48-2,13,5.69,16l0,0c-1.34,6.59-4.5,13.22,3.32,18.49,3.11,2.09-.25,5.73-1,8.49-3.91,13.66-1.64,16.4,11.51,13.45.06,6.61-6.49,7.13-9.45,11-1.83,2.38-5.16,4.3-2.83,8,1.94,3.09,4.6,5.46,8.62,4.21s7.72-3.35,11.67.24c-2.23,6.26-16.49,2.3-11.39,13.44,3.92,8.59,10.41.21,15.92-.23.41,6.32-4.54,7.11-7.42,9.79-4.45,4.14-10.18,7.53-9.71,15.1.4,6.55-3.24,17.88,12.9,7.19-18.6,16.54-5,34.66-8.2,50.79-.42,2.14-.38,5.34,2.74,5.39,1.5,0,4.15-1.82,4.38-3.16,1.7-9.85,7.64-8.25,14.71-6-5.87,11.16-5.14,22.09,1.06,33.62,7.57-6.4,2.73-17.7,10-25.08,2.34,10.48-3.12,18.72-4.16,27.54-.8,6.84-5.19,16.43,8.52,9.12,4.54-2.42,5.67,2,6.31,5.71-3.12.07-5.64.22-7,4.35-2.28,7-5.92,13.59-8.2,20.62-1.26,3.86-2.68,10.2,5.3,5.62,5.27-3,8.28,2.55,12.1,4,4.09,1.51-.67,5.11-1.92,7.47-2.71,5.12-3.64,9.78,1.86,13.34,5.71,3.7,11.31,1.81,15.89-2.12,5.33-4.58.93-8.28-2-11.87-1-1.19-2-2.47-.18-4.8,5.49,1.7,9.12,6.12,11.39,11.32s5.4,5.55,9,3c4.47-3.13.82-5.84-1.11-8.72-3.87-5.77-8.88-10.94-9.86-18.39,11.11,3.5,12.05,17.15,21.67,22.62-2.61-10.51-5.58-20.63-11.05-30-3.41-5.84-10.29-15.59-4.25-18.67,7.36-3.76,7,8.32,9.86,13.59s6.17,9.61,13,12.32a141.77,141.77,0,0,0-17.76-48.68c6.14,3,14,13.7,16.16,20.28,1.35,4.11.92,12.2,6.07,10.65,6.21-1.88,2.36-8.11.29-12.79-3-6.71-3.34-14.12-.09-20.54,1.8-3.56,2.65-6.13,1.27-9.77-.84-2.21-1.32-5.75.89-6.5,15.88-5.41,7.28-19.59,9.45-29.44,2.38-10.82-1-22.72,5.07-33.54v17c0,15.58.39,31,12.07,43.11,2.3,2.4-1,4.11-1.34,6.16-1.16,7-.37,12.42,9.06,8.68-.7,8.22-7.83,12.69-10.16,21.09,8.52-3,9.54,5.75,14.77,7.72-2.69,6.75-15,3.64-12,12.69,4.09,12.26,14.94,4.62,24.22,5.32-4.9,7.38-12.17,15.66,3.77,15.29,1.08,10,10.29,10.79,16.28,14.85,15.51,10.53,32.06,17.85,51.45,12.36-6.62,22.55-6.62,22.56-33.75,24.6-1.87.14-2.81,1-2.62,2.87.28,2.67,2,4.8,4.34,4.83,14.6.14,28.38,9.57,43.44,4.1,2.25-.82,4.64-1.51,6.21.93,7.95,12.4,21,10,32.5,12.08,2.14.37,4.84.57,6.24-1.84,2-3.39-1.58-4.65-2.76-6.9-9.83-18.61-20.58-37-18.91-59.43.47-6.22-4.11-12-.68-19.63,3.65,5,4.21,9.89,5,14.62,2.37,14.06,13.91,21.09,22,30.75a4.18,4.18,0,0,0,4.14.56c2.14-1.49,2.12-4.49,1.32-6.5-4.56-11.49-5.32-24.3-12.13-35.08a70.53,70.53,0,0,1-11.31-36.57c10.82,17.78,13.69,40.91,34.8,54.73-2-11.39-6.47-20.25,0-29.21,2.06-2.85-1.69-6.45-4.19-9a72.48,72.48,0,0,1-14.17-20.47c12.29,5.31,15.75,16.25,22.9,23.32,3.57,3.52,6.44,7.79,9.83,11.52,1.45,1.59,3.53,4.14,5.64,1.47,1.85-2.35,1.51-5.32-1.48-7-6.18-3.49-14.1-6.09-3.83-14.8.72-.61-3.42-10.89-4.12-17.06,3.82-1.67,5,3.66,8.2,2.82.18.31.35.63.52.94-.16-.32-.33-.64-.49-1-3.76-14,2.85-29.24-4.61-42.84h0c3-2.5,6.46-1.26,10.38-.86.43-10.41-8.23-18.43-7.29-30.3,5.1,4.12,5,9.17,6.93,13.1,1.1,2.27,2.92,3.79,5.51,3.12,2.92-.75,3.09-3.41,2.53-5.69a86.35,86.35,0,0,0-4.09-13.39c-1.07-2.53-3.57-5.45-1.95-7.56,4.85-6.28,3.83-11.57.18-18.07-2-3.6-2-8.69,5.39-7.29,5.26,1,6.68-.22,6.46-7.69-.31-10.58-1.56-22.21,3.58-32.53h0c3.67,12,1.67,25.92,11.92,35.56,2.19,2.06.48,4.13-.52,6.35-4.12,9.11.78,10.66,8.14,9.86-8.67,20.25-8.67,20.25,5.53,26.45-9.87,5-15.62,12.85-19.25,23.16,9-7,18.71-7.19,29.5-5.42-2.86,6.59-10.31,1.74-12.88,6.46s2.17,9.89-3.34,16.94l22.92-9.34c-3.09,6.85-9,8.87-14.33,11.14-6.86,2.92-7.28,8-7,14.37.28,7.74,5.82,6.34,10.69,6-1,4.84-8.08,6.11-4.37,11.77,1.13,1.73,2.13,3.29,4.44,2.8,4.66-1,8.43-3,8.28-9.27,4.72,3.7,4.24,8.59,4.94,12.62,1.73,9.9,8.81,12,16.5,13.61,4.74,1,5.34-1.41,3.87-5.39-.81-2.2-1.14-4.6-3.4-6-11.66-7-14-20.06-19.93-31.28,8.67-.1,8.67-.1,10.65-12.42,3.37,0,3,3.18,3.66,5.13,3.53,10.58,12.73,17.33,23.6,17.07,2,0,3.93-.12,4.81-2.33,1.34-3.38.16-6.19-2.13-8.64-5-5.3-10.28-10.37-12.62-18.37a15.58,15.58,0,0,1,3.55,0c4.82,1.3,6.38,12.48,10.07,8.26a20,20,0,0,0,1.71-23.2c-3.46-5.94-9.9-10.1-10.6-18.79,5.4,0,7.48,3.73,9,7.52,2.86,7.29,9.49,11.34,13.49,17.61,1.22,1.92,3.12,2.6,4.89,1.3s1.31-3.22.31-5.21c-3.34-6.68-6.47-13.49-10.37-21.69,7.81,2.35,7.8,9.23,12.55,13.21,3.15-7.6-2.59-14.23-.72-20.91h0c12.53-6.46,6.32-16.48,4.79-25.79-.44-2.73-2.77-5.61.21-10.28,1.87,5.09,3.21,9,4.74,12.78.94,2.34,2.72,4.1,5.27,3.72a4.29,4.29,0,0,0,3.11-6.38c-7.94-12.67,3.24-26-1.58-38.67a6,6,0,0,1,.43-4.56c7.9-12.83,12.65-29.77,10-40.62-1.36-5.51-1.52-10.88-1.69-16.38v0c6.9,11.94,6.31,26.25,11.4,38.8,1,2.37-.69,6.85,2,7.52,9.36,2.38,5.54,5.76,2.3,11.14-1.73,2.88-3.34,10.84,5.41,8.8,4.86-1.13,4.35,1.22,3.26,4.18-.52,1.41-1.87,2.47-2.76,3.76-8.65,12.49-6.9,17.49,8.71,20.81-9.56,4.57-18.45,8.61-20.81,20.22,13.47-5,15-3.46,14.39,15.38-.15,4.38,4,9.6-2.53,13.79-2,1.3.08,7.65,5.76,7,7.42-.88,7.09,3.71,5.88,8.93-.65,2.79-4.53,6.08-.66,8.34,8,4.65,7.08,6.94-.5,11.36-3.86,2.25-2.19,7.77,3.2,7.88,17.23.36,34.47.21,51.71.11,4.37,0,5.45-2.25,2.86-6.07a5.53,5.53,0,0,1-1.17-2c-.72-6.13-6.51-13.7-1.88-17.8,4.23-3.75,9.12,4.42,14.07,6.48,18.12,7.54,36.64,12.66,56.19,9.1,1-2.59-.21-3.82-1.6-4.25-16-5-29.31-15.35-43.92-23.09-3.41-1.8-7.22-3.71-6.9-8.49.41-6.12-.81-14.06,10-8.62,6.77,3.4,14.49,4.85,21.87,6.84,2.44.66,6,1.55,7.22-1.45,1.49-3.63-2.18-4.05-4.44-5.39-8.4-4.94-15.85-10.83-18.55-21.22-.53-2.05-3.68-3.82-1.21-6.08,2.28-2.08,5-1,7.45.5a56.73,56.73,0,0,0,22.59,7.85c10,1.38,15.91-2.07,14-13.59-1.64-9.8,1.73-17.65,8.84-23.44,8.48-6.89,6-13.78,1.49-21.3-2.46-4.08-8.2-7,0-12.74,7.32-5.11-1.7-12.74-1.09-19.44h9.33c3.48,5.07,14.76,3.38,11.54,14.26-2.07,13.81,9.92,24.85,7.15,38.88-.4,2,1.34,3.67,3.71,3.23s2.53-2.6,2.75-4.57c1.18-10.35,2.35-20.7,3.9-34.43,4.91,10.81,2.19,19,3.09,26.75.34,2.91-1.05,7.17,3.37,7.53,3.83.31,5.16-3.66,5.33-6.58.47-7.65,3.5-14,8.11-19.93-2.31,13.32-5.1,26.38-4.72,40a29.11,29.11,0,0,0,2.49,11.25c1,2.35,4.56,3,5-.24,1.57-13.29,9.81-24,12.53-36.8.48-2.29.34-5.38,3.34-5.33,4.82.09,1.21,4.67,2.43,6,5,5.66-2.4,16.25,7.51,19.87.51.18.64,3.15.11,4.45-1.91,4.6-6.52,9.23-3,14.16,3.63,5.14,10,1.59,15.08,2.5-1.7,10.75-8.69,19-13,28.44-1.67,3.65-4.25,6.78-2.12,10.84,2.5,4.78,5.33,1.12,8.5.5,6.68-1.31,3.44,4.8,4.35,7.83l-.92.52.91-.53c2.66.6,8.22-1,3.74,5.07-1.13,1.54-3.42,2.4-4.09,4-1.66,4.07-7.89,6.79-4.81,12.15,3.31,5.79,7-3.34,11-.59.56,6-7,7.14-7.12,12.64.55.52,1,1.44,1.57,1.44,5.09,0,12.64-5.69,14.47-1.19,2.76,6.79-3.8,13.71-9,17.55-5.51,4.08-7.5,9.67-10.68,14.89-.83,1.35-1.74,2.78-.28,4.19s3.22,1.18,4-.19c5.47-9.22,13.29-3.12,19.64-2.68,13.69,1,16.3-.2,19.25-14,1-4.49,3.82-3.15,6.12-1.93,5.88,3.14,12.25,4.61,18.63,5.51,5.14.73,10.53-1,12.61-6.26,2.33-5.81-3.15-6.92-6.83-8.8-10.84-5.54-12.76-17.94-19.13-26.93-.55-.78.06-3.32.93-4.11a6.56,6.56,0,0,1,7.59-.64c3.28,1.87,5.83,5.07,9,7.19,7.49,5,15.5,6.41,23.9,1.83-10.75-18-25.55-33.24-43.6-48.84,11.57-1.6,19.93-1.71,28.61.43,11.58,2.86,14.14-.71,15.31-13.12.63-6.59-2.21-17.34,12.19-16.22,7.64.6,5.3-8.23,2.91-13.81-4.33-10.12-2.33-13.88,8.66-15.31-3-7-8.51-10.84-16.35-14.79,8.63-3,9.66-6.54,9.11-15.68-.63-10.48-.3-23.58,5.79-34,3-5.16,4.52-10.54,6.46-16.38,0,6-.2,12,0,18.05.26,6.21-.42,11.22,6.39,16.8,4.63,3.79,2.16,17.25,2.29,26.4.07,5.12-7,12,4.92,13.08,4.41.4-2.49,9.14,2.19,9.7,12.86,1.55,5.24,7.92,5.05,14.09-.17,5.5-.15,13.89,7.93,16.56,4.87,1.61,11.34,19.07,8.56,23.46-1.5,2.37-3.75,4.63-1.62,7.35,1.87,2.39,5.31,2.35,7.49,1.11,6.31-3.59,15.34-4.32,15.09-15.53,10.71,6.37,9.69,17.48,12.9,26.4.51,1.41.2,4.52.29,4.52,15.58.11,8.6,20.12,20,24.31,3.49,1.29,6,4.42,10.24,2.14,5.07-2.7.55-6,1.07-8.43,1.2-5.65,6.25-9.56,4.25-17.19-1.16-4.44-4.53-10.65,1.6-17.15,2.62-2.78,1.52-16.47-9.57-20.42,6.76,5.51,17.45-4.14,21.21,7.81a2.72,2.72,0,0,0,3.89,1.38,2.57,2.57,0,0,0,.88-4c-12.43-13.31,3.72-29.73-4.47-43.51-.92-1.54.32-3.64,2-2.68,6.44,3.6,6-3.72,5.66-5-3.34-10.56,6.41-17.9,5.85-27.64a3.08,3.08,0,0,1,3.79-3.33c2.57.59,2.27,3,1.53,4.79-1.89,4.48,4.45,9.25-.86,13.9-1.49,1.3.76,5.16,3,5.34,8.76.69,6.9,6.42,5.27,11.59-2,6.27-4,11.56-.52,18.76,2.77,5.68-4.13,11.17-6.22,17-1.72,4.8-6.12,10.14,4,9.34.76-.06,2.4,1.37,2.33,1.93-2.59,19.37,13.44,9.36,20.37,13.49,2.93,1.76,6.66-1.25,8.56-4.48,2.32-4-.6-6.57-2.74-9.33s-4.77-5.35-6.16-8.5c-3.69-8.3-.5-12.49,10-12-2.83-6.28-4.7-12.34-4.21-19,.45-6.27,1.19-9.73,7.64-4.5,7.64,6.18,17.26,8.25,25.67,12.83,2.06,1.12,4.16,2.92,5.42-.62.85-2.39.11-4.54-2-6.25-3.22-2.62-8-2.89-10.25-7.13,8.21-2.11,11.24-10.16,6.56-19-3.73-7-11.81-13.36-.33-20.57.91-.57,1.32-3,1.07-4.37-4.17-23.19,13.39-37.2,21.51-55.33-6.85,12.22-6.7,26.16-9.86,39.21-.87,3.57-3.11,7.88,1.09,9.1,9.35,2.71,6.77,9.08,5.28,15s-1,10.12,3.4,15c5.37,6,1.24,14.47,2.51,21.7.67,3.81-2.58,10.78,2.61,10.82,6.25,0,4.14-7.29,4.11-11.61-.09-9.94.68-19.58,5.34-29.59a8.9,8.9,0,0,1,.89,9.18c-6,13.26-3.27,27.31-3.76,41-.09,2.55-.9,6.39,2.87,6.6,3.14.17,5.38-2,6.3-5.72,3.13-12.78,11.66-24,9.52-38.44-.59-3.92,1.84-8.32,3.55-15.17,5.43,9.25,6.61,17.66,8.4,25.75,1,4.73.73,10.51,8.06,5.75,3.73-2.42,4.76.31,4.85,3.51.13,5.13.38,10.23-1.57,15.23-2.84,7.3,4.06,8.7,7.58,11.1,5.09,3.48,5.06-2,5.92-5.17.66-2.47,2-4.27,4.63-4.62,3-.4,3.72,1.93,4.54,4.24,2.47,7,1.19,18.24,14.36,13.46.71-.26,3.14,4.88,4.91,7.41,1.45,2.07,3.68,3.51,5.9,2.06,2.72-1.77.89-4.39-.26-6.2-6-9.52-12.54-18.7-17.58-28.91-1.8-3.65-5.17-7.83-1.19-10.27,5.07-3.12,5.84,3,7.13,6.38,1.36,3.53,2.77,7.47,7,5.53,4-1.8,2.68-6.29,1.55-9.48a46,46,0,0,0-5.49-10.34c-4.71-6.87,1.46-4.58,4-5.37h0c8.86,9,10.16,22.65,19.18,31.81-.68-16.26-3.91-31.48-14.94-44-4.08-4.64-13.9-7-3.55-16.69,2.94-2.74-3.48-13.6-3.52-21.26,0-3.56-4.14-8.35.63-10.2,3.69-1.44,6,3.84,8.4,6.77,1,1.2,1.35,3.12,2.51,3.92,4,2.81,5.5,12.29,9.7,9.82,5.86-3.45-4-7.5-3.2-10.93,2.38-9.79-3.18-16.19-8.15-23.41,6.92-2.6,7.19,5.46,12.28,6.27,4-14.61,1.15-26.76-10.74-36.4-2-1.6-4.51-3.74-2.58-7a5.91,5.91,0,0,1,3.62-2.46c3.11-.59,4.89,1.37,6,4.2.81,2-.36,5,3.84,6.06,6.58-10.33.72-18.23-5.36-25.44-4.17-4.95-8.62-9.09-5-16.29l4.57.05c2.91,10.6,5.76,21.25,18.43,23.75q0,214.13.19,428.25v10h-9.17c-477.07-.28-963.5-.28-1440.58,0Zm750.6-132.86c-4.65,5.11,1.35,7.73,2.73,11.15,1.66,4.14,5.32,1.67,7.93.45,10-4.69,19.93-9.55,29.85-14.42,4-2,7.34-3.2,7.52,3.58.16,6.35,4.84,7.74,9.57,7.9,9.95.32,20.32,1.87,29.74-.46,6.74-1.66,12.56-3.49,19.67-2.14,4.53.87,11.5-1,11-7.26-.49-6.75-6.33-5.39-11.68-4.62-9.08,1.31-18.47,5.67-26.75-4.42-3.92-4.76-12.25-2.48-18.23-4.18-8.77-2.5-17.57-5.08-24.76-12.5-9.7-10-13.36-10.49-23.79,5.51-1,1.57-2.64,2.72-4,4.06-.32-4.41.89-11.13-6.33-8.82s-8.3,11-8.89,16.9c-.61,6.21,5.12,2.45,8.33,1.43C752.58,3062.09,752.59,3065,750.6,3067.14Zm73.85,42.14c4.78,0,8.59-1.56,8.39-7.26-.23-6.26-5.9-3.35-7.8-4.62-9.77-6.55-23.53-.59-31.39-11.42a6.08,6.08,0,0,0-2.59-1.5c-4.79,7.6-15.39,9.67-18.45,17.43-2.37,6,1.2,14,8,18,5.85,3.41,21.38.84,21.69-4.21.72-11.92,8.12-5.55,12.92-6.37C818.33,3109.28,821.39,3109.27,824.45,3109.28Zm349.79-115.84a7.18,7.18,0,0,0-8.52,1.51c-4.9,5.06-9.65,9.37-17.57,8.86-3-.2-7.74,2.05-8.68,6.55-.68,3.28-2,7.64,1.64,9.72,4,2.3,5-2.17,6.45-4.66,2.88-4.83,4.34-8.63,8.41,0,2.48,5.28,9.54,1,14.2-.07,6-1.34,8-6.75,7.95-14.65C1178.15,2998.89,1178.08,2995.17,1174.24,2993.44Zm-723.09,174.2c-2.92.06-2.37,4.19-.12,5.14,14.39,6,28,14.83,45.3,12.79-16.39-4.43-22.17-24.07-39.1-27.34C454.26,3160.69,458.38,3167.49,451.15,3167.64ZM158.63,3091.5c-1.55-7.41-2.13-16.24-9.91-20.86-3.17,6.16-15.34-2-14.86,10.14.41,10.59,5.62,16.47,15.48,16.62C153.17,3096.91,160.16,3098.8,158.63,3091.5ZM825,3026.78c-2.35-5.7-23.87-12.58-29.15-9.25-2.4,1.52-5.18,4.25-5.63,6.83-.82,4.67,3.81,3.7,6.43,4.45,7.28,2.08,14.6,4,22.23,6C822.55,3033.64,827.66,3033.23,825,3026.78ZM441,3185.16c1.72-.62,2.69-1.73,2.27-3.4-1.15-4.54-1.8-10.09-6.68-11.63s-10.73.47-15-5c-1.08-1.4-5.71.63-6.38,4.21C415.8,3174.38,436.56,3186.78,441,3185.16Zm-271.06-89c1.07,1.71,3.54,1.34,5.31.41,1.95-1,2.38-3.17,2.08-5.11-1.46-9.53-7.59-16.14-14.27-21.87-2.4-2.06-6-.39-5.82,5.09C161.23,3081.43,165.42,3088.9,170,3096.13Zm464-3.72c2.89,5.62,2.31,15,12.24,14.41,3.23-.2,5.86-1.91,4.39-5.07-2.79-6-2.78-14.54-11.57-15.95C635.32,3086.46,632.83,3090.14,634,3092.41Zm-16.84,6.31c1.7,1.57,3.43,3.76,5.76,1.58,1.63-1.54,3.66-4.48,2.12-6.18-4-4.38-3.79-9.61-4.82-14.82a6.7,6.7,0,0,0-8-5.18c-2.49.48-3.85,2.35-4.43,6C619.27,3081.5,611.47,3093.47,617.16,3098.72Zm-430.07-16.19c3.67.66,4.65-2.7,3.86-5.43-2-6.95-2.34-15.95-10-18.49-4.89-1.63-2.57,4.78-3.63,7.87C178.58,3073,178.17,3080.93,187.09,3082.53ZM1044,3064.07c-1-4.49-4.4-9.28-9.52-8.37-3,.53-9.65-.68-9.06,4.41.62,5.3,4.75,10,9.59,9C1040.11,3068.44,1045.14,3069.57,1044,3064.07Zm106.14-94.85c-3,1.56-5.87,3.79-6,7.83-.07,2.36,1.64,3.35,3.67,3.55,4.33.41,8.71-.29,11-4.3,1.63-2.84,1.73-6.62,2.73-10.92C1156.24,2964.66,1153.33,2967.55,1150.1,2969.22Zm-1119-68.14c.67,2.09,1.29,4.85,4.21,4.75,2.1-.07,3.42-1.88,3.75-3.82,1-5.91,7-10.68,3.24-18.94C36.83,2889,28,2891.07,31.14,2901.08Zm-4.33,69.76c0-1.55-2.28-2.25-3.63-1.22-3.67,2.8-5.13,6.58-3.25,13.25C23.29,2978.16,26.71,2975.39,26.81,2970.84Zm248.28,148.48c-.71-.06-2.25,1.36-2.18,2,.55,5.16,5.14,4.65,9.64,7.93C281.89,3121.91,279.26,3119.68,275.09,3119.32Z"/></g></svg>