<svg xmlns="http://www.w3.org/2000/svg" xmlns:xlink="http://www.w3.org/1999/xlink" viewBox="0 0 1450 3200"><defs><style>.cls-1{fill:url(#linear-gradient);}.cls-2{fill:#aa6bfc;}.cls-3{fill:#8459c9;}.cls-4{fill:#5c428e;}.cls-5{fill:#332751;}.cls-6{fill:#161223;}</style><linearGradient id="linear-gradient" x1="732.43" y1="84" x2="717.71" y2="3087.83" gradientUnits="userSpaceOnUse"><stop offset="0" stop-color="#291844"/><stop offset="0.25" stop-color="#533380"/><stop offset="0.5" stop-color="#794bb6"/><stop offset="0.72" stop-color="#945ddc"/><stop offset="0.89" stop-color="#a467f3"/><stop offset="1" stop-color="#aa6bfc"/></linearGradient></defs><title>6_1</title><g id="Fine"><rect class="cls-1" width="1450" height="3200"/><path class="cls-2" d="M476.71,2594.73c20.29-17,42.27-16.25,65.61-7.4,12.47,4.73,25.48,8.1,38.44,11.3,6.29,1.56,11.85-2.65,17.11-5.58,16.71-9.31,33.37-18.72,49.67-28.72,8.35-5.11,17.58-7.54,26.5-10.82,16.44-6.05,30.42-18.24,48.7-19.83,2.67-.23,5.29-2.94,7.64-4.88,17.85-14.78,22.6-14.9,43.87-1.6a95.42,95.42,0,0,0,20.47,9.83c24,8.1,47,18.49,67.8,33.22,8.57,6.06,17.86,9.29,28.06,8.41A315.2,315.2,0,0,0,959,2564.8c5.46-1.74,10.62-5,16.49-4.58,24.71,1.69,45.13-10.11,64.7-22.5,15-9.47,29.36-19.75,46.43-24.88,23-6.91,44.62-2.15,65,9.46a303.77,303.77,0,0,1,27.26,17.25c8.65,6.23,17.73,9.12,27.94,6.12,18.37-5.4,37-8.39,54.57-18.28,27.54-15.51,54.4-36.09,89.34-30.7,3.6.56,6.4-1.27,9.28-3.61,26.16-21.32,55.3-34.69,89.68-33.56V2702c-1.11-.25-2.4-.19-3.31-.77-17.28-11-34.17-18.8-50.51,2-3.14,4-8.83,5.94-13.34,8.82-2.44-1.12-4.89-2.22-7.32-3.35-10.9-5.08-18-16.06-28.46-20.86-19.86-9.07-38.79-19.91-58.36-29.48-6-2.91-10.78-4-16-.45-9.17,6.22-18.73,5.19-28.7,2.91-13.41-3.07-25.73-.8-36.67,8.31a69.68,69.68,0,0,1-20.9,12c-38.64,14-72.84,6.21-103.18-21.25-6.21-5.61-11.62-13.12-20.72-13.68-8.18-.5-14.28-4-20.29-9.24-11.49-10.11-23.51-19-40.25-11.23-4.79,2.22-9.86-.12-13.85-3.46a163.92,163.92,0,0,1-14.47-13.14c-23.09-24.63-37.58-19.15-59.38-1.62-12.5,10.05-24.59,21.73-37,32.36-19,16.3-42.61,25.33-64.47,37.06-7.51-8.43-18.21-7.16-27.66-8.46-14.16-1.95-29.07-5-42.81-1.43-31.11,8-59,5.79-82.45-18.65-3.5-3.64-7.18-8.68-12-8.44-21.64,1.09-40.42-18-63.15-8.87-2.07.83-5.31-.57-7.74-1.58-5.23-2.18-9.35-.62-13.82,2.41-14.15,9.61-24.1,10.4-36.26-.68C511.24,2617.14,494.46,2605.36,476.71,2594.73Z"/><path class="cls-3" d="M0,2728.88V3200H1449.39V2894.41h.36V2697.24h-3.84c-6.48-20.36-67-16.33-83.2,4.3-1.13,1.43-68.84,2.94-170.69-2.1-68-3.36-120.62-24.12-191.64-27.73-17.45-.89-38.88,8.21-55.23,7.39-55.35-2.78-103.11-5.11-133.64-6.36-7.47-7.58-17.78-6.42-26.93-7.68-14.16-1.94-29.07-5-42.82-1.43-31.11,8-59,5.79-82.44-18.65-3.5-3.64-7.18-8.68-12-8.44-21.65,1.09-40.43-18-63.16-8.86-2.06.82-5.31-.58-7.73-1.59-5.23-2.18-9.36-.62-13.83,2.41-14.15,9.62-24.09,10.4-36.26-.68-15.45-14.07-32.23-25.85-50-36.47-27.31-10.3-45.83-32.67-67.65-50.52a2.83,2.83,0,0,1-.64-1c-7.95-17.33-26.73-17.91-40.23-26.65-2-1.32-3.48,1-5.2,1.26-17.59,3-27.84,16.59-39,28.3-8.83,9.25-17.45,14.28-30.3,8.89-8.2-3.44-16.57-2.12-24,3.24-13.35,9.6-24.06,23.88-42.63,24.24-2,0-4.43,1.59-6,3.17-13.33,13.63-31.09,21-45.38,33.36-3.42,3-7.57,5.7-11.83,6.84-35.58,9.62-69,6.07-98.78-17.85-11.7-9.4-24.48-13.53-39.57-9.69-8.1,2.07-16.37,4.19-24.93,3.35v32.08L0,2728.88m1442.47,37.26h0l0,0S1442.47,2766.16,1442.47,2766.14ZM11.64,2735.81a.45.45,0,0,0,.11,0s0,0,0,.06Z"/><path class="cls-4" d="M.25,2724.7V3200H1450V2774.83a29.26,29.26,0,0,0-4.91-7.88l-.82.48c-.29-.71-.57-1.41-.87-2.11-6.4-5.81-13.86-11-15.67-20.5l-.08.14a.48.48,0,0,0-.14-.09.92.92,0,0,0-.25-.08c-1.65-.32-5.28,2.44-3.94-2.61v0a14.91,14.91,0,0,0-1-2.36,16,16,0,0,0-1.25-2.12,20.9,20.9,0,0,0-1.47-1.93c-.53-.61-1.07-1.21-1.65-1.79-.28-.3-.56-.58-.86-.87-.58-.57-1.17-1.12-1.77-1.68-1.49-1.4-3-2.79-4.33-4.3-5.9-6.71-15.56-10.42-16.43-21.12-2.46-1.13-4.93-2.24-7.38-3.38-11-5.1-18.15-16.15-28.73-21-20-9.12-39.12-20-58.85-29.64-6-2.93-10.89-4-16.11-.46-9.26,6.26-18.89,5.23-29,2.93-13.53-3.08-25.94-.8-37,8.36a70.45,70.45,0,0,1-21.08,12.06c-39,14.11-73.47,6.23-104.09-21.38-6.26-5.63-11.72-13.19-20.9-13.74-8.26-.51-14.41-4-20.48-9.31-11.58-10.16-23.71-19.08-40.59-11.28-4.83,2.23-10-.12-14-3.47a166.6,166.6,0,0,1-14.6-13.22c-23.28-24.76-37.91-19.25-59.91-1.63-12.6,10.1-24.8,21.85-37.33,32.54-19.21,16.39-43,25.46-65,37.25-7.49,14.63-22.4,22.3-33.76,16.07-18-9.88-36.21-8-54.78-2.82-3.33.92-6.72,2.47-10.06,2.41-13.26-.26-23.26,6-32.91,14.43-12,10.56-27,16.71-42.46,15.17-18.14-1.82-36-5.18-54.38-3.61a140,140,0,0,0-34.89,7.06c-9.66,3.39-17.3,10.88-26.59,13.43-12.83,3.54-27,2.25-39.8,5.77-17.28,4.74-30.37,2.77-41.56-12.81-11.88-16.56-28.28-19.71-47-11.24-10.94,5-22.51,9.8-34.6,6.75-25.8-6.5-49.58,2.61-71.23,12.78-24.31,11.39-49,9.74-73.6,10.67-14.92.58-28.89.55-43.58,5.68-18.13,6.34-34.87,21-56.51,13.49-4.65-1.61-9.81-1.75-14.76-2.41l-7.38-1-.76-.1-.48-.07c-1.43-.19-2.83-.4-4.26-.61s-2.58-.37-3.87-.58l-2.32-.38c-.94-.15-1.89-.31-2.82-.48l-1.8-.32c-.79-.14-1.55-.28-2.32-.44s-1.54-.3-2.3-.47c-.36-.06-.71-.14-1.05-.22l-1.31-.28c-.73-.16-1.47-.33-2.2-.51l-2.25-.55c-.39-.09-.78-.2-1.16-.3l-1.65-.44c-1-.26-1.87-.53-2.81-.82l-2.25-.71-1.21-.4-2.06-.73c-.9-.32-1.82-.67-2.71-1-.41-.16-.79-.31-1.18-.48l-1-.4c-.45-.2-.92-.39-1.38-.6l-.72-.32c-1.06-.48-2.11-1-3.15-1.51l-.73-.37c-.55-.29-1.11-.57-1.65-.88-.22-.12-.42-.24-.64-.35-.38-.2-.74-.4-1.1-.62s-.46-.26-.69-.41c-.51-.29-1-.61-1.54-.93l-.32-.19-.26-.17c-.53-.35-1.08-.69-1.61-1-.78-.52-1.55-1.06-2.32-1.62-.55-.4-1.12-.82-1.66-1.24s-1.17-.9-1.74-1.38l-.67-.54-1.39-1.19c-.57-.5-1.12-1-1.69-1.52l-.34-.31c-.55-.53-1.12-1.06-1.66-1.62C14.23,2725.53,0,2716.82.25,2724.7ZM1152.9,3075.55s0,0,0,0v0Zm-455.47-14.1h0v0h0Zm-6.91-9.36h0Z"/><path class="cls-5" d="M.25,2941.25V3200H1450V2909.62s-.92,2.53-12.8-4.5c-4.17-2.46-11.34-1.61-20.1.89h0a3,3,0,0,1-2.44.92,3.59,3.59,0,0,1-.46,0c-2,.61-4,1.3-6.11,2h0c-5,1.73-10.22,3.75-15.59,5.82l-4.9,1.89c-3.38,1.3-6.75,2.58-10.1,3.8h0c-5.55,2-11,3.89-16.21,5.32-11.08,3.06-16.67,7.08-20.64,10.83-1.76,1.65-3.2,3.25-4.64,4.68-.45.45-.89.88-1.36,1.27a7,7,0,0,1-.65.57,17.26,17.26,0,0,1-1.45,1.1l-.06,0c-.21.14-.43.29-.66.42l-.11.06c-.27.17-.56.33-.85.49s-.58.29-.89.42a2.72,2.72,0,0,1-.47.19l-.56.23a22,22,0,0,1-4.75,1.1c-.29,0-.62.08-.94.1a.18.18,0,0,0-.1,0l-1.46.09-.76,0c-.25,0-.53,0-.8,0-12.19.08-17-3.45-22.24-6.14a23.52,23.52,0,0,0-12.82-3c-14.82.49-20.16-9.56-23.2-18.83s-22.64-21.36-22.64-21.36l-17.31-13.76c-4.07-7.37-10.51-9.82-18.35-9.48-11.1.5-21.76-.43-32.43-4.86-17.67-7.33-35.09-6.77-53,2-9.51,4.67-18.61,10.23-28.11,14.89-6.7,3.29-13.76,0-19.94,3.78-14.31,8.74-31,8.38-46.57,12.32-16.33,4.13-27.18-11.85-41.92-15.27-4.74-1.1-10.72-2.9-15.31-7-8.93-8-19.52-11-31.69-11a88.79,88.79,0,0,0-37.41,8.17c-7,3.2-16.32,9.6-22-4,0,.46-.07.92-.09,1.38-.18,3-.36,6-.56,9a50.92,50.92,0,0,1-11.63,1.57,27,27,0,0,1-15.58-4.66c-26.36-17.65-53-34.95-82.75-46.1-6.37-2.39-11.16-8.77-18.79-7.74l0,0,0,0c-.9-6.33-7-6.88-10.53-7.24-10.49-1.07-18.47-7-25.76-13.21-11-9.4-20-8.88-31.55-.41-9.65,7.12-21,11.89-32.25,16.65-19,8-39.11,14.29-54.85,29.21-2.85,2.7-6.79,5-11.29,4.84-.38-6.91-2-8.07-6.26-6.15h0c-1,2.19-7.95,17.53-4.36,1.05-5,12.34-3.55,2.07-4.78,6.45-1.79,6.45-5.63-2.75-2.76,4.31-3.48,5.05-12.17-8.45-9,2.39a62.22,62.22,0,0,1-6.87-.21l-1.15-.12h0c-.43,0-.84-.09-1.26-.16s-1.11-.15-1.67-.24l-.15,0-.21,0h0c-.32-.06-.64-.11-1-.19a2.48,2.48,0,0,1-.41-.08c-.49-.1-1-.2-1.45-.32l-.54-.13-.4-.11-1-.27c-1.43-.41-2.86-.91-4.32-1.49-.55-.21-1.12-.44-1.68-.69-6.34-2.79-14-6.67-22.22-3.42a12,12,0,0,1-12-1.93c-10.58-8.34-22.69-10.7-35.74-9.5-3,.27-6.76.84-9-.62-18.26-11.84-39.75-16.95-56.64-32.22-28.32-25.62-74.33-31.45-103.78-5.55-6.63,5.83-14.82,9.74-21.86,15.13-12,9.23-24.31,9.81-38.71,5.86-22.54-6.16-42.73-16.77-62.57-28.83-4.15-2.53-8.28-5.11-12.46-7.62l-3.18-1.87-.88-.51-1.6-.92c-.34-.2-.69-.39-1-.58l-1.76-1q-2.66-1.46-5.34-2.77l-1.49-.72-.65-.31-1.47-.67c-1.21-.55-2.42-1.06-3.65-1.56s-2.46-1-3.71-1.4c-.87-.3-1.75-.61-2.63-.87s-1.68-.52-2.55-.75l-.64-.17c-.5-.14-1-.26-1.52-.39-.76-.18-1.52-.34-2.28-.5l-1.83-.34c-.66-.12-1.32-.21-2-.3-.43-.07-.87-.12-1.31-.16s-.78-.1-1.18-.13c-.61-.06-1.23-.12-1.83-.14s-1.14-.08-1.72-.09-1.36,0-2,0H107.8l-.75,0c-.31,0-.61,0-.92,0-.49,0-1,0-1.47.09-.33,0-.65,0-1,.08l-.9.07-1.11.14c-.49.06-1,.13-1.46.21a6.68,6.68,0,0,0-.78.13l-.52.07-1.8.35c-3.55.73-6.59-.91-9.33-3.52-15.45-14.67-34.18-23.88-52.91-32.92-3.26-1.57-7.16-5.4-11.43-1.41l-4.58,0c0-.25,0-.5,0-.73l-18.4-2.72-.18,205Z"/><path class="cls-6" d="M1450,3200c-477.08-.28-963.51-.28-1440.58,0H.25v-10q.39-214.12.19-428.25c12.67-2.5,15.52-13.15,18.43-23.75l4.57-.05c3.66,7.2-.79,11.34-5,16.29-6.08,7.21-11.94,15.11-5.36,25.44,4.2-1,3-4.08,3.84-6.06,1.16-2.83,2.94-4.79,6.05-4.2a5.91,5.91,0,0,1,3.62,2.46c1.93,3.21-.6,5.35-2.58,7-11.89,9.64-14.75,21.79-10.74,36.4,5.09-.81,5.36-8.87,12.28-6.27-5,7.22-10.53,13.62-8.15,23.41.83,3.43-9.06,7.48-3.2,10.93,4.2,2.47,5.65-7,9.7-9.82,1.16-.8,1.53-2.72,2.51-3.92,2.39-2.93,4.71-8.21,8.4-6.77,4.77,1.85.65,6.64.63,10.2,0,7.66-6.46,18.52-3.52,21.26,10.35,9.67.53,12-3.55,16.69-11,12.54-14.26,27.76-14.94,44,9-9.16,10.32-22.85,19.18-31.81h0c2.56.79,8.73-1.5,4,5.37a46,46,0,0,0-5.49,10.34c-1.13,3.19-2.41,7.68,1.55,9.48,4.28,1.94,5.69-2,7.05-5.53,1.29-3.33,2.06-9.5,7.13-6.38,4,2.44.61,6.62-1.19,10.27-5,10.21-11.54,19.39-17.58,28.91-1.15,1.81-3,4.43-.26,6.2,2.22,1.45,4.45,0,5.9-2.06,1.77-2.53,4.2-7.67,4.91-7.41,13.17,4.78,11.89-6.49,14.36-13.46.82-2.31,1.52-4.64,4.54-4.24,2.58.35,4,2.15,4.63,4.62.86,3.21.83,8.65,5.92,5.17,3.52-2.4,10.42-3.8,7.58-11.1-1.95-5-1.7-10.1-1.57-15.23.09-3.2,1.12-5.93,4.85-3.51,7.33,4.76,7-1,8.06-5.75,1.79-8.09,3-16.5,8.4-25.75,1.71,6.85,4.14,11.25,3.55,15.17-2.14,14.43,6.39,25.66,9.52,38.44.92,3.74,3.16,5.89,6.3,5.72,3.77-.21,3-4,2.87-6.6-.49-13.74,2.19-27.79-3.76-41a8.9,8.9,0,0,1,.89-9.18c4.66,10,5.43,19.65,5.34,29.59,0,4.32-2.14,11.66,4.11,11.61,5.19,0,1.94-7,2.61-10.82,1.27-7.23-2.86-15.69,2.51-21.7,4.36-4.88,4.85-9.18,3.4-15s-4.07-12.32,5.28-15c4.2-1.22,2-5.53,1.09-9.1-3.16-13.05-3-27-9.86-39.21,8.12,18.13,25.68,32.14,21.51,55.33-.25,1.38.16,3.8,1.07,4.37,11.48,7.21,3.4,13.53-.33,20.57-4.68,8.84-1.65,16.89,6.56,19-2.27,4.24-7,4.51-10.25,7.13-2.1,1.71-2.84,3.86-2,6.25,1.26,3.54,3.36,1.74,5.42.62,8.41-4.58,18-6.65,25.67-12.83,6.45-5.23,7.19-1.77,7.64,4.5.49,6.71-1.38,12.77-4.21,19,10.47-.45,13.66,3.74,10,12-1.39,3.15-4,5.73-6.16,8.5s-5.06,5.38-2.74,9.33c1.9,3.23,5.63,6.24,8.56,4.48,6.93-4.13,23,5.88,20.37-13.49-.07-.56,1.57-2,2.33-1.93,10.14.8,5.74-4.54,4-9.34-2.09-5.8-9-11.29-6.22-17,3.51-7.2,1.46-12.49-.52-18.76-1.63-5.17-3.49-10.9,5.27-11.59,2.27-.18,4.52-4,3-5.34-5.31-4.65,1-9.42-.86-13.9-.74-1.77-1-4.2,1.53-4.79a3.08,3.08,0,0,1,3.79,3.33c-.56,9.74,9.19,17.08,5.85,27.64-.39,1.23-.78,8.55,5.66,5,1.72-1,3,1.14,2,2.68-8.19,13.78,8,30.2-4.47,43.51a2.57,2.57,0,0,0,.88,4,2.72,2.72,0,0,0,3.89-1.38c3.76-11.95,14.45-2.3,21.21-7.81-11.09,4-12.19,17.64-9.57,20.42,6.13,6.5,2.76,12.71,1.6,17.15-2,7.63,3.05,11.54,4.25,17.19.52,2.44-4,5.73,1.07,8.43,4.29,2.28,6.75-.85,10.24-2.14,11.45-4.19,4.47-24.2,20-24.31.09,0-.22-3.11.29-4.52,3.21-8.92,2.19-20,12.9-26.4-.25,11.21,8.78,11.94,15.09,15.53,2.18,1.24,5.62,1.28,7.49-1.11,2.13-2.72-.12-5-1.62-7.35-2.78-4.39,3.69-21.85,8.56-23.46,8.08-2.67,8.1-11.06,7.93-16.56-.19-6.17-7.81-12.54,5-14.09,4.68-.56-2.22-9.3,2.19-9.7,11.94-1.08,4.85-8,4.92-13.08.13-9.15-2.34-22.61,2.29-26.4,6.81-5.58,6.13-10.59,6.39-16.8.25-6,.05-12,.05-18.05,1.94,5.84,3.44,11.22,6.46,16.38,6.09,10.39,6.42,23.49,5.79,34-.55,9.14.48,12.68,9.11,15.68-7.84,3.95-13.35,7.81-16.35,14.79,11,1.43,13,5.19,8.66,15.31-2.39,5.58-4.73,14.41,2.91,13.81,14.4-1.12,11.56,9.63,12.19,16.22,1.17,12.41,3.73,16,15.31,13.12,8.68-2.14,17-2,28.61-.43-18.05,15.6-32.85,30.83-43.6,48.84,8.4,4.58,16.41,3.17,23.9-1.83,3.18-2.12,5.73-5.32,9-7.19a6.56,6.56,0,0,1,7.59.64c.87.79,1.48,3.33.93,4.11-6.37,9-8.29,21.39-19.13,26.93-3.68,1.88-9.16,3-6.83,8.8,2.08,5.22,7.47,7,12.61,6.26,6.38-.9,12.75-2.37,18.63-5.51,2.3-1.22,5.16-2.56,6.12,1.93,2.95,13.82,5.56,15,19.25,14,6.35-.44,14.17-6.54,19.64,2.68.82,1.37,2.73,1.46,4,.19,1.46-1.41.55-2.84-.28-4.19-3.18-5.22-5.17-10.81-10.68-14.89-5.2-3.84-11.76-10.76-9-17.55,1.83-4.5,9.38,1.24,14.47,1.19.52,0,1-.92,1.57-1.44-.14-5.5-7.68-6.62-7.12-12.64,4-2.75,7.66,6.38,11,.59,3.08-5.36-3.15-8.08-4.81-12.15-.67-1.65-3-2.51-4.09-4-4.48-6.1,1.08-4.47,3.74-5.07l.91.53-.92-.52c.91-3-2.33-9.14,4.35-7.83,3.17.62,6,4.28,8.5-.5,2.13-4.06-.45-7.19-2.12-10.84-4.33-9.48-11.32-17.69-13-28.44,5.08-.91,11.45,2.64,15.08-2.5,3.49-4.93-1.12-9.56-3-14.16-.53-1.3-.4-4.27.11-4.45,9.91-3.62,2.48-14.21,7.51-19.87,1.22-1.36-2.39-5.94,2.43-6,3-.05,2.86,3,3.34,5.33,2.72,12.77,11,23.51,12.53,36.8.39,3.26,3.91,2.59,5,.24a29.11,29.11,0,0,0,2.49-11.25c.38-13.6-2.41-26.66-4.72-40,4.61,6,7.64,12.28,8.11,19.93.17,2.92,1.5,6.89,5.33,6.58,4.42-.36,3-4.62,3.37-7.53.9-7.75-1.82-15.94,3.09-26.75,1.55,13.73,2.72,24.08,3.9,34.43.22,2,.35,4.11,2.75,4.57s4.11-1.24,3.71-3.23c-2.77-14,9.22-25.07,7.15-38.88-3.22-10.88,8.06-9.19,11.54-14.26h9.33c.61,6.7-8.41,14.33-1.09,19.44,8.17,5.72,2.43,8.66,0,12.74-4.52,7.52-7,14.41,1.49,21.3,7.11,5.79,10.48,13.64,8.84,23.44-1.93,11.52,3.94,15,14,13.59a56.73,56.73,0,0,0,22.59-7.85c2.42-1.5,5.17-2.58,7.45-.5,2.47,2.26-.68,4-1.21,6.08-2.7,10.39-10.15,16.28-18.55,21.22-2.26,1.34-5.93,1.76-4.44,5.39,1.24,3,4.78,2.11,7.22,1.45,7.38-2,15.1-3.44,21.87-6.84,10.82-5.44,9.6,2.5,10,8.62.32,4.78-3.49,6.69-6.9,8.49-14.61,7.74-27.92,18.14-43.92,23.09-1.39.43-2.62,1.66-1.6,4.25,19.55,3.56,38.07-1.56,56.19-9.1,5-2.06,9.84-10.23,14.07-6.48,4.63,4.1-1.16,11.67-1.88,17.8a5.53,5.53,0,0,1-1.17,2c-2.59,3.82-1.51,6,2.86,6.07,17.24.1,34.48.25,51.71-.11,5.39-.11,7.06-5.63,3.2-7.88-7.58-4.42-8.5-6.71-.5-11.36,3.87-2.26,0-5.55-.66-8.34-1.21-5.22-1.54-9.81,5.88-8.93,5.68.68,7.78-5.67,5.76-7-6.58-4.19-2.38-9.41-2.53-13.79-.65-18.84.92-20.37,14.39-15.38-2.36-11.61-11.25-15.65-20.81-20.22,15.61-3.32,17.36-8.32,8.71-20.81-.89-1.29-2.24-2.35-2.76-3.76-1.09-3-1.6-5.31,3.26-4.18,8.75,2,7.14-5.92,5.41-8.8-3.24-5.38-7.06-8.76,2.3-11.14,2.64-.67,1-5.15,2-7.52,5.09-12.55,4.5-26.86,11.4-38.8v0c-.17,5.5-.33,10.87-1.69,16.38-2.67,10.85,2.08,27.79,10,40.62a6,6,0,0,1,.43,4.56c-4.82,12.68,6.36,26-1.58,38.67a4.29,4.29,0,0,0,3.11,6.38c2.55.38,4.33-1.38,5.27-3.72,1.53-3.8,2.87-7.69,4.74-12.78,3,4.67.65,7.55.21,10.28-1.53,9.31-7.74,19.33,4.79,25.79h0c1.87,6.68-3.87,13.31-.72,20.91,4.75-4,4.74-10.86,12.55-13.21-3.9,8.2-7,15-10.37,21.69-1,2-1.53,3.87.31,5.21s3.67.62,4.89-1.3c4-6.27,10.63-10.32,13.49-17.61,1.49-3.79,3.57-7.54,9-7.52-.7,8.69-7.14,12.85-10.6,18.79a20,20,0,0,0,1.71,23.2c3.69,4.22,5.25-7,10.07-8.26a15.58,15.58,0,0,1,3.55,0c-2.34,8-7.64,13.07-12.62,18.37-2.29,2.45-3.47,5.26-2.13,8.64.88,2.21,2.85,2.28,4.81,2.33,10.87.26,20.07-6.49,23.6-17.07.65-2,.29-5.08,3.66-5.13,2,12.32,2,12.32,10.65,12.42-5.94,11.22-8.27,24.32-19.93,31.28-2.26,1.35-2.59,3.75-3.4,6-1.47,4-.87,6.38,3.87,5.39,7.69-1.6,14.77-3.71,16.5-13.61.7-4,.22-8.92,4.94-12.62-.15,6.25,3.62,8.27,8.28,9.27,2.31.49,3.31-1.07,4.44-2.8,3.71-5.66-3.35-6.93-4.37-11.77,4.87.3,10.41,1.7,10.69-6,.23-6.34-.19-11.45-7-14.37-5.34-2.27-11.24-4.29-14.33-11.14l22.92,9.34c-5.51-7-.82-12.32-3.34-16.94s-10,.13-12.88-6.46c10.79-1.77,20.52-1.61,29.5,5.42-3.63-10.31-9.38-18.16-19.25-23.16,14.2-6.2,14.2-6.2,5.53-26.45,7.36.8,12.26-.75,8.14-9.86-1-2.22-2.71-4.29-.52-6.35,10.25-9.64,8.25-23.6,11.92-35.56h0c5.14,10.32,3.89,22,3.58,32.53-.22,7.47,1.2,8.69,6.46,7.69,7.42-1.4,7.41,3.69,5.39,7.29-3.65,6.5-4.67,11.79.18,18.07,1.62,2.11-.88,5-1.95,7.56a86.35,86.35,0,0,0-4.09,13.39c-.56,2.28-.39,4.94,2.53,5.69,2.59.67,4.41-.85,5.51-3.12,1.91-3.93,1.83-9,6.93-13.1.94,11.87-7.72,19.89-7.29,30.3,3.92-.4,7.34-1.64,10.38.86h0c-7.46,13.6-.85,28.82-4.61,42.84-.16.33-.33.65-.49,1,.17-.31.34-.63.52-.94,3.22.84,4.38-4.49,8.2-2.82-.7,6.17-4.84,16.45-4.12,17.06,10.27,8.71,2.35,11.31-3.83,14.8-3,1.69-3.33,4.66-1.48,7,2.11,2.67,4.19.12,5.64-1.47,3.39-3.73,6.26-8,9.83-11.52,7.15-7.07,10.61-18,22.9-23.32a72.48,72.48,0,0,1-14.17,20.47c-2.5,2.52-6.25,6.12-4.19,9,6.47,9,2,17.82,0,29.21,21.11-13.82,24-37,34.8-54.73a70.53,70.53,0,0,1-11.31,36.57c-6.81,10.78-7.57,23.59-12.13,35.08-.8,2-.82,5,1.32,6.5a4.18,4.18,0,0,0,4.14-.56c8.07-9.66,19.61-16.69,22-30.75.79-4.73,1.35-9.65,5-14.62,3.43,7.65-1.15,13.41-.68,19.63,1.67,22.38-9.08,40.82-18.91,59.43-1.18,2.25-4.73,3.51-2.76,6.9,1.4,2.41,4.1,2.21,6.24,1.84,11.5-2,24.55.32,32.5-12.08,1.57-2.44,4-1.75,6.21-.93,15.06,5.47,28.84-4,43.44-4.1,2.33,0,4.06-2.16,4.34-4.83.19-1.85-.75-2.73-2.62-2.87-27.13-2-27.13-2.05-33.75-24.6,19.39,5.49,35.94-1.83,51.45-12.36,6-4.06,15.2-4.86,16.28-14.85,15.94.37,8.67-7.91,3.77-15.29,9.28-.7,20.13,6.94,24.22-5.32,3-9.05-9.31-5.94-12-12.69,5.23-2,6.25-10.69,14.77-7.72-2.33-8.4-9.46-12.87-10.16-21.09,9.43,3.74,10.22-1.7,9.06-8.68-.34-2-3.64-3.76-1.34-6.16,11.68-12.12,12.1-27.53,12.07-43.11v-17c6.06,10.82,2.69,22.72,5.07,33.54,2.17,9.85-6.43,24,9.45,29.44,2.21.75,1.73,4.29.89,6.5-1.38,3.64-.53,6.21,1.27,9.77,3.25,6.42,2.87,13.83-.09,20.54-2.07,4.68-5.92,10.91.29,12.79,5.15,1.55,4.72-6.54,6.07-10.65,2.16-6.58,10-17.31,16.16-20.28a141.77,141.77,0,0,0-17.76,48.68c6.87-2.71,10.21-7.11,13-12.32s2.5-17.35,9.86-13.59c6,3.08-.84,12.83-4.25,18.67-5.47,9.38-8.44,19.5-11,30,9.62-5.47,10.56-19.12,21.67-22.62-1,7.45-6,12.62-9.86,18.39-1.93,2.88-5.58,5.59-1.11,8.72,3.62,2.54,6.81,2.07,9-3s5.9-9.62,11.39-11.32c1.82,2.33.8,3.61-.18,4.8-3,3.59-7.35,7.29-2,11.87,4.58,3.93,10.18,5.82,15.89,2.12,5.5-3.56,4.57-8.22,1.86-13.34-1.25-2.36-6-6-1.92-7.47,3.82-1.41,6.83-7,12.1-4,8,4.58,6.56-1.76,5.3-5.62-2.28-7-5.92-13.59-8.2-20.62-1.34-4.13-3.86-4.28-7-4.35.64-3.69,1.77-8.13,6.31-5.71,13.71,7.31,9.32-2.28,8.52-9.12-1-8.82-6.5-17.06-4.16-27.54,7.31,7.38,2.47,18.68,10,25.08,6.2-11.53,6.93-22.46,1.06-33.62,7.07-2.27,13-3.87,14.71,6,.23,1.34,2.88,3.18,4.38,3.16,3.12-.05,3.16-3.25,2.74-5.39-3.17-16.13,10.4-34.25-8.2-50.79,16.14,10.69,12.5-.64,12.9-7.19.47-7.57-5.26-11-9.71-15.1-2.88-2.68-7.83-3.47-7.42-9.79,5.51.44,12,8.82,15.92.23,5.1-11.14-9.16-7.18-11.39-13.44,3.95-3.59,7.79-1.45,11.67-.24s6.68-1.12,8.62-4.21c2.33-3.7-1-5.62-2.83-8-3-3.83-9.51-4.35-9.45-11,13.15,3,15.42.21,11.51-13.45-.79-2.76-4.15-6.4-1-8.49,7.82-5.27,4.66-11.9,3.32-18.49l0,0c7.64-3.06,4.7-10.53,5.69-16,1.23-6.81.68-14,4.16-20.55.78,11.07,5.54,21.63,2.46,32.94-.78,2.87-1.93,7.82,2.51,7.17,13-1.91,7.51,5.27,5.79,11-.89,3-3,7.16-1.88,8.86,6.67,10,1.42,19.35-.3,28.93-3.63,10.92,3.72,19,9.09,25.44,3.51,4.19,3.81,6,2.76,10.32-1.38,5.68-6.87,12.23-3.8,16.69,4.88,7.08,2.35,11.42-1.17,16.89-1.41,2.18-3.38,5-1,7.56,2.2,2.35,4.13-4,6.86-.78-.3,5.86-3.68,10-6.52,14.72-2.44,4,9,10.2,16.94,7.38-5.16,9.72.46,11.46,7,11.64,9.41.26,18,4.45,27.41,5.27,5.68.49,9.37-.33,10.72-5.48s.08-10.44-6.24-11.93c-7.64-1.8-12.7-7.44-16.93-13.39-3.52-5-5-12.54-2.68-17.54,2.79-5.9,7.78,1.44,12,1.31.65,0,1.28-.62,2.5-1.26-3.13-6.84-8.66-13.08-6.41-21.55.75-3.72,1.51-7.45,2.36-11.68,16.29,8.19,30.45,21,50.51,22.5-3.14-6.34-4.91-11.84-11.45-13.62-5.43-1.47-11-3.33-12-11.15,1.76,0,3.61-.6,4.62.1,10.85,7.54,9.49-.81,9.67-7.68.3-11.37-6-20.08-10.66-29.46-.6-1.21-.35-2.87-.49-4.26,4.6-.74,4.58,5.3,8.18,5.06,2.54-9.21,3.36-17.76-3.13-25.83-1.13-1.41-3-11.16,1.92-8.72,6.87,3.38,5.34-1.93,6-3.79,1.1-2.87.65-6.46,4.81-6.95,6.07.93,4.47,5.95,4.91,9.87-.21,15.69-.17,15.72,12.9,11.25,2.19,7.76-1.26,14.74-2.68,21.92-.84,4.23-3,9.3,1.65,11.72,9,4.64,7.57,12.75,5.64,19.41-3.07,10.58.06,19.81,3,29.7,4.21-7.17,7.7-14.82,6.74-23-1.43-12.26,4.67-23,5.3-34.69.19-3.61,3.11-5.18,6.49-5.47-.83,3.83-1.11,7.9-2.58,11.44-7.84,18.83-2.32,39.17-6.41,58.44-1,4.85,1.68,8.27,7.11,8.51,4.3.19,7.43-1.89,6.19-6.09-2.57-8.69,3.57-14.81,4.89-22.27,4.9,3.84,3.72,9.95,5.38,15,1.1,3.36,3.75,6.83,7.59,5.73,5-1.44,1.67-5.87.57-7.63-4-6.35-6.08-14.33-13.49-17.9.65-3-3.75-6.18-.38-8.56,3.08-2.18,5.5,1,7.75,3.1,1.39,1.27,2.92,3.09,4.83,1.68s1.29-3.73-.28-5c-11.5-9.4-17.36-22.27-21.23-36.41-2.78-8.05-6-16.07-2-25.05,6.16,16.49,6.16,16.49,25.07,23.87,1,.33-.11-.74-1.32-1-2.38-.47-.8,1.72-.68,1.91a28.51,28.51,0,0,0,2.57,3.15c.49-.77,1-1.55-.57-4.08,7.67-16.64-9.5-13.67-14.38-19,5.18-3.39,10.15,3.65,15.38-.49-4.82-5.12-11.89-7.32-12.71-15,8.53,1.84,13.06,10.48,21.45,13.69,1.18-3.72-.67-8.36,4.71-10.4,2.82-1.08,2-5.49-.64-8.05-3.07-3.88-.72-7.89-.27-11.85,2.63-2,1.52-3.51-.36-5.35-5.7-5.57-3-9,2.93-11.51,8.7-5.54,4.52-10.84-.73-15.31-5.59-4.76-12.18-8.41-14.8-16.8,8-.15,10.24,9.68,17.66,8.22l9.29,9.75c0,129.26.09,268.5.36,397.77ZM697.43,3059.3c3.21,1,8.94,4.78,8.33-1.43-.59-5.87-1.7-14.6-8.89-16.9s-6,4.41-6.33,8.82c-1.34-1.34-3-2.49-4-4.06-10.43-16-14.09-15.51-23.79-5.51-7.19,7.42-16,10-24.76,12.5-6,1.7-14.31-.58-18.23,4.18-8.28,10.09-17.67,5.73-26.75,4.42-5.35-.77-11.19-2.13-11.68,4.62-.46,6.26,6.51,8.13,11,7.26,7.11-1.35,12.93.48,19.67,2.14,9.42,2.33,19.79.78,29.74.46,4.73-.16,9.41-1.55,9.57-7.9.18-6.78,3.52-5.55,7.52-3.58,9.92,4.87,19.85,9.73,29.85,14.42,2.61,1.22,6.27,3.69,7.93-.45,1.38-3.42,7.38-6,2.73-11.15C697.41,3065,697.42,3062.09,697.43,3059.3Zm-62.69,50c4.8.82,12.2-5.55,12.92,6.37.31,5,15.84,7.62,21.69,4.21,6.84-4,10.41-12,8-18-3.06-7.76-13.66-9.83-18.45-17.43a6.08,6.08,0,0,0-2.59,1.5c-7.86,10.83-21.62,4.87-31.39,11.42-1.9,1.27-7.57-1.64-7.8,4.62-.2,5.7,3.61,7.28,8.39,7.26C628.61,3109.27,631.67,3109.28,634.74,3109.28ZM271.88,3000.71c0,7.9,1.93,13.31,7.95,14.65,4.66,1,11.72,5.35,14.2.07,4.07-8.64,5.53-4.84,8.41,0,1.48,2.49,2.45,7,6.45,4.66,3.61-2.08,2.32-6.44,1.64-9.72-.94-4.5-5.67-6.75-8.68-6.55-7.92.51-12.67-3.8-17.57-8.86a7.18,7.18,0,0,0-8.52-1.51C271.92,2995.17,271.85,2998.89,271.88,3000.71Zm720.89,157.52c-16.93,3.27-22.71,22.91-39.1,27.34,17.26,2,30.91-6.74,45.3-12.79,2.25-1,2.8-5.08-.12-5.14C991.62,3167.49,995.74,3160.69,992.77,3158.23Zm307.89-60.83c9.86-.15,15.07-6,15.48-16.62.48-12.1-11.69-4-14.86-10.14-7.78,4.62-8.36,13.45-9.91,20.86S1296.83,3096.91,1300.66,3097.4Zm-669.53-62.58c7.63-2.05,15-3.93,22.23-6,2.62-.75,7.25.22,6.43-4.45-.45-2.58-3.23-5.31-5.63-6.83-5.28-3.33-26.8,3.55-29.15,9.25C622.34,3033.23,627.45,3033.64,631.13,3034.82Zm403.59,134.49c-.67-3.58-5.3-5.61-6.38-4.21-4.23,5.5-10,3.45-15,5s-5.53,7.09-6.68,11.63c-.42,1.67.55,2.78,2.27,3.4C1013.44,3186.78,1034.2,3174.38,1034.72,3169.31Zm258-94.66c.19-5.48-3.42-7.15-5.82-5.09-6.68,5.73-12.81,12.34-14.27,21.87-.3,1.94.13,4.08,2.08,5.11,1.77.93,4.24,1.3,5.31-.41C1284.58,3088.9,1288.77,3081.43,1292.73,3074.65ZM810.94,3085.8c-8.79,1.41-8.78,9.95-11.57,15.95-1.47,3.16,1.16,4.87,4.39,5.07,9.93.63,9.35-8.79,12.24-14.41C817.17,3090.14,814.68,3086.46,810.94,3085.8Zm31.25-5.72c-.58-3.61-1.94-5.48-4.43-6a6.7,6.7,0,0,0-8,5.18c-1,5.21-.85,10.44-4.82,14.82-1.54,1.7.49,4.64,2.12,6.18,2.33,2.18,4.06,0,5.76-1.58C838.53,3093.47,830.73,3081.5,842.19,3080.08Zm430.5-13.6c-1.06-3.09,1.26-9.5-3.63-7.87-7.67,2.54-8,11.54-10,18.49-.79,2.73.19,6.09,3.86,5.43C1271.83,3080.93,1271.42,3073,1272.69,3066.48ZM415,3069.09c4.84,1,9-3.68,9.59-9,.59-5.09-6-3.88-9.06-4.41-5.12-.91-8.57,3.88-9.52,8.37C404.86,3069.57,409.89,3068.44,415,3069.09ZM288.48,2965.38c1,4.3,1.1,8.08,2.73,10.92,2.29,4,6.67,4.71,11,4.3,2-.2,3.74-1.19,3.67-3.55-.11-4-2.94-6.27-6-7.83C296.67,2967.55,293.76,2964.66,288.48,2965.38Zm1119.18-82.31c-3.75,8.26,2.26,13,3.24,18.94.33,1.94,1.65,3.75,3.75,3.82,2.92.1,3.54-2.66,4.21-4.75C1422,2891.07,1413.17,2889,1407.66,2883.07Zm22.41,99.8c1.88-6.67.42-10.45-3.25-13.25-1.35-1-3.66-.33-3.63,1.22C1423.29,2975.39,1426.71,2978.16,1430.07,2982.87Zm-262.62,146.34c4.5-3.28,9.09-2.77,9.64-7.93.07-.6-1.47-2-2.18-2C1170.74,3119.68,1168.11,3121.91,1167.45,3129.21Z"/></g></svg>